<svg width="1068" height="277" viewBox="0 0 1068 277" fill="none" xmlns="http://www.w3.org/2000/svg">
<path d="M506.247 274.036C496.459 272.548 487.213 270.237 478.509 267.206C478.633 265.671 478.452 259.172 474.181 252.437C469.273 244.821 461.53 238.995 461.53 238.938C461.606 238.919 458.638 245.958 463.052 254.152C466.248 260.063 472.811 264.563 476.293 266.419C468.512 263.568 461.178 260.139 454.31 256.189C454.729 254.711 455.861 248.316 453.131 241.041C449.973 232.8 443.647 225.856 443.656 225.799C443.723 225.799 439.557 232.203 442.211 240.928C444.132 247.227 449.478 252.674 452.389 255.061C445.121 250.732 438.387 245.825 432.204 240.435C432.898 239.061 435.286 233.027 434.116 225.449C432.727 216.866 427.923 208.985 427.933 208.928C427.999 208.928 422.739 214.479 423.605 223.459C424.233 229.948 428.285 236.182 430.596 239.004C424.917 233.899 419.724 228.376 415.015 222.512C415.938 221.281 419.362 215.758 419.553 208.141C419.724 199.502 416.356 190.986 416.375 190.929C416.433 190.948 410.335 195.523 409.622 204.466C409.108 210.927 411.962 217.7 413.693 220.845C408.889 214.668 404.618 208.123 400.899 201.302C402.022 200.25 406.369 195.429 407.9 188.002C409.593 179.571 407.729 170.638 407.757 170.59C407.815 170.619 401.032 174.058 398.787 182.706C397.17 188.959 398.778 196.073 399.91 199.445C396.447 192.861 393.489 186.022 391.054 179.012C392.338 178.169 397.418 174.143 400.138 167.104C403.182 159.1 402.783 149.996 402.821 149.949C402.868 149.987 395.62 152.251 391.996 160.388C389.389 166.271 389.817 173.537 390.379 177.032C387.877 169.482 385.975 161.743 384.7 153.899C386.108 153.293 391.805 150.242 395.696 143.801C400.072 136.469 401.232 127.431 401.28 127.394C401.318 127.441 393.784 128.388 388.819 135.758C385.242 141.082 384.415 148.301 384.367 151.834C383.273 144.502 382.721 137.094 382.721 129.677C384.205 129.317 390.331 127.252 395.22 121.539C400.728 115.031 403.372 106.278 403.42 106.24C403.458 106.288 395.848 105.975 389.741 112.436C385.337 117.106 383.349 124.097 382.74 127.574C382.845 120.052 383.52 112.521 384.785 105.075C386.317 104.971 392.7 103.967 398.493 99.1262C405.027 93.6034 409.175 85.3619 409.241 85.3335C409.27 85.3903 401.793 83.7989 394.64 89.1795C389.475 93.0729 386.336 99.6661 385.147 103.001C386.498 95.678 388.41 88.4312 390.911 81.3454C392.443 81.4874 398.921 81.5632 405.503 77.7077C412.942 73.3028 418.582 65.7718 418.658 65.7528C418.677 65.8096 411.553 62.9962 403.486 67.1738C397.665 70.1956 393.394 76.2299 391.634 79.3466C394.431 71.7871 397.903 64.4171 402.06 57.3218C403.553 57.7386 409.936 58.9512 417.251 56.2703C425.507 53.1916 432.755 46.6268 432.832 46.6268C432.851 46.6836 426.316 42.6292 417.412 45.3953C410.982 47.3941 405.522 52.6611 403.173 55.4651C407.158 48.9003 411.743 42.5818 416.946 36.5854C418.354 37.2391 424.48 39.5031 432.356 38.0064C441.259 36.2633 450.011 30.8258 450.096 30.8353C450.106 30.9016 444.36 25.7767 434.801 27.1219C427.895 28.0976 421.341 32.4931 418.43 34.9087C420.998 32.0479 423.7 29.2628 426.554 26.563C430.13 24.981 436.475 21.9591 442.915 17.2889C452.332 10.3547 459.494 1.76268 459.551 1.71532C459.656 1.6869 447.861 2.68156 437.578 10.2126C430.682 15.2333 426.734 21.5328 425.003 24.981C422.111 27.7187 419.362 30.5417 416.756 33.4499C418.811 30.1912 423.005 23.5695 425.326 16.6353C428.542 7.02967 426.002 0.000705227 425.916 0.000705227C425.869 -0.0940248 415.567 9.3695 413.132 19.4677C410.915 28.2492 414.464 33.914 415.253 35.174C409.974 41.2556 405.313 47.6688 401.27 54.3378C402.63 50.8612 405.37 43.8133 406.178 36.7749C407.31 27.0272 403.391 20.6613 403.315 20.6708C403.258 20.5855 395.363 31.2521 395.002 41.3882C394.602 50.2076 399.13 55.1336 400.138 56.223C395.924 63.4224 392.395 70.9061 389.561 78.5887C390.207 74.989 391.492 67.6853 390.845 60.7605C389.951 51.1549 384.833 45.6985 384.766 45.7174C384.7 45.6416 379.268 57.2555 380.914 67.1264C382.274 75.7279 387.63 79.7349 388.828 80.6159C386.288 87.8059 384.338 95.157 382.969 102.593C382.988 98.9651 382.969 91.633 381.095 84.9925C378.498 75.7847 372.486 71.304 372.429 71.3419C372.363 71.2756 369.157 83.4578 372.486 92.8266C375.321 101.002 381.266 104.043 382.598 104.706C381.314 112.265 380.629 119.9 380.524 127.545C379.934 123.974 378.688 116.784 375.701 110.598C371.573 102.025 364.867 98.6525 364.819 98.6904C364.743 98.6336 363.716 111.072 368.558 119.711C372.724 127.261 379.078 129.241 380.505 129.667C380.505 137.198 381.066 144.72 382.179 152.166C381.028 148.746 378.641 141.868 374.684 136.279C369.214 128.53 362.051 126.342 362.004 126.38C361.928 126.333 362.955 138.723 369.119 146.434C374.446 153.179 381.028 154.079 382.503 154.269C383.806 162.226 385.727 170.088 388.267 177.752C386.545 174.579 383.016 168.213 378.175 163.41C371.468 156.741 364.049 155.86 364.011 155.907C363.925 155.869 367.064 167.891 374.446 174.399C380.838 180.101 387.468 179.836 388.952 179.76C391.425 186.875 394.421 193.818 397.941 200.506C395.715 197.645 391.197 191.933 385.642 187.983C377.946 182.508 370.498 182.858 370.47 182.915C370.384 182.896 375.406 194.254 383.758 199.483C390.997 204.078 397.494 202.713 398.949 202.391C402.725 209.316 407.054 215.957 411.933 222.237C409.222 219.793 403.743 214.915 397.579 211.959C389.047 207.857 381.77 209.496 381.751 209.553C381.656 209.553 388.562 219.926 397.741 223.658C405.703 226.955 411.895 224.492 413.265 223.923C418.04 229.873 423.319 235.481 429.074 240.662C425.916 238.692 419.591 234.761 412.961 232.857C403.781 230.204 396.875 233.027 396.866 233.093C396.771 233.103 405.408 242.244 415.205 244.423C423.719 246.374 429.455 242.907 430.71 242.112C436.988 247.587 443.828 252.56 451.2 256.956C447.604 255.563 440.441 252.807 433.45 252.087C423.757 251.092 417.45 255.099 417.45 255.165C417.346 255.194 427.743 262.706 438.035 263.132C446.986 263.549 452.056 259.106 453.159 258.102C460.132 262.1 467.57 265.586 475.475 268.484C471.499 267.717 463.632 266.183 456.403 266.647C446.386 267.281 440.831 272.293 440.841 272.359C440.736 272.406 452.693 278.109 463.29 276.802C472.507 275.712 476.797 270.464 477.72 269.29C486.556 272.368 495.945 274.708 505.876 276.224C506.951 276.385 507.892 276.016 507.978 275.409C508.064 274.803 507.265 274.197 506.218 274.036" fill="#372E6D"/>
<path d="M691.553 174.408C698.934 167.9 702.073 155.879 701.987 155.917C701.949 155.869 694.53 156.75 687.824 163.419C682.982 168.222 679.453 174.588 677.731 177.762C680.271 170.098 682.202 162.235 683.505 154.278C684.98 154.089 691.562 153.189 696.889 146.444C703.053 138.742 704.09 126.342 704.004 126.389C703.956 126.342 696.803 128.54 691.324 136.289C687.367 141.878 684.98 148.755 683.829 152.175C684.942 144.729 685.503 137.208 685.503 129.677C686.93 129.25 693.284 127.261 697.45 119.72C702.292 111.081 701.264 98.6431 701.188 98.6999C701.141 98.662 694.435 102.025 690.306 110.607C687.32 116.793 686.073 123.983 685.484 127.555C685.379 119.91 684.694 112.275 683.41 104.715C684.742 104.052 690.687 101.011 693.522 92.8361C696.851 83.4673 693.645 71.285 693.579 71.3513C693.522 71.3229 687.5 75.7942 684.913 85.0019C683.039 91.6425 683.02 98.9746 683.039 102.612C681.669 95.1759 679.719 87.8249 677.18 80.6254C678.378 79.7444 683.743 75.7374 685.094 67.1359C686.73 57.265 681.298 45.6511 681.241 45.7269C681.175 45.7079 676.057 51.1739 675.163 60.77C674.516 67.6948 675.8 74.989 676.447 78.5982C673.603 70.9251 670.083 63.4319 665.87 56.2324C666.878 55.143 671.406 50.2171 671.006 41.3977C670.645 31.2711 662.75 20.595 662.693 20.6803C662.616 20.6708 658.697 27.0366 659.829 36.7844C660.638 43.8228 663.377 50.8707 664.738 54.3473C660.685 47.6783 656.034 41.2651 650.755 35.1834C651.544 33.9235 655.092 28.2587 652.876 19.4772C650.45 9.3695 640.149 -0.0940248 640.092 0.000705226C640.006 0.000705226 637.457 7.02967 640.681 16.6448C642.993 23.579 647.197 30.2006 649.252 33.4593C646.645 30.5511 643.896 27.7282 641.005 24.9905C639.283 21.5328 635.326 15.2428 628.43 10.2221C618.147 2.69104 606.352 1.69637 606.456 1.72479C606.513 1.77216 613.676 10.3642 623.093 17.2984C629.523 21.9781 635.878 25 639.454 26.5725C642.308 29.2723 645.009 32.0573 647.578 34.9087C644.667 32.4931 638.113 28.0976 631.207 27.1219C621.638 25.7767 615.902 30.8922 615.912 30.8353C616.007 30.8353 624.758 36.2633 633.652 38.0064C641.528 39.5031 647.654 37.2485 649.062 36.5854C654.265 42.5724 658.85 48.8909 662.835 55.4651C660.476 52.6611 655.026 47.4036 648.595 45.3953C639.692 42.6292 633.157 46.6837 633.176 46.6268C633.262 46.6268 640.501 53.1916 648.757 56.2703C656.072 58.9512 662.455 57.7386 663.948 57.3218C668.105 64.4171 671.577 71.7871 674.373 79.3466C672.623 76.2299 668.343 70.1956 662.521 67.1738C654.455 62.9962 647.321 65.8096 647.349 65.7528C647.425 65.7718 653.066 73.3028 660.505 77.7077C667.087 81.5538 673.565 81.4875 675.096 81.3454C677.598 88.4312 679.52 95.6685 680.861 103.001C679.672 99.6567 676.533 93.0729 671.368 89.1795C664.214 83.7989 656.738 85.3903 656.766 85.3335C656.833 85.3619 660.98 93.6034 667.515 99.1262C673.308 103.967 679.691 104.971 681.222 105.075C682.487 112.521 683.163 120.043 683.267 127.574C682.659 124.097 680.671 117.106 676.266 112.426C670.16 105.966 662.55 106.278 662.588 106.231C662.645 106.269 665.289 115.012 670.787 121.53C675.677 127.242 681.803 129.307 683.286 129.667C683.286 137.085 682.735 144.502 681.641 151.834C681.593 148.301 680.766 141.082 677.199 135.758C672.233 128.388 664.7 127.441 664.738 127.394C664.785 127.432 665.946 136.469 670.321 143.801C674.212 150.242 679.919 153.293 681.317 153.899C680.033 161.743 678.14 169.482 675.639 177.032C676.2 173.537 676.628 166.271 674.022 160.398C670.407 152.26 663.149 149.996 663.206 149.958C663.244 150.006 662.845 159.1 665.889 167.114C668.609 174.152 673.698 178.178 674.973 179.021C672.538 186.031 669.579 192.871 666.117 199.455C667.249 196.082 668.856 188.968 667.239 182.716C664.994 174.067 658.212 170.628 658.269 170.6C658.298 170.657 656.433 179.58 658.127 188.011C659.658 195.438 664.005 200.26 665.128 201.311C661.408 208.132 657.137 214.678 652.334 220.854C654.065 217.719 656.919 210.945 656.405 204.485C655.692 195.542 649.594 190.967 649.651 190.948C649.67 191.005 646.303 199.521 646.474 208.16C646.674 215.767 650.089 221.299 651.012 222.531C646.313 228.395 641.109 233.908 635.431 239.014C637.733 236.191 641.785 229.948 642.413 223.459C643.278 214.479 638.018 208.937 638.084 208.928C638.094 208.985 633.29 216.866 631.902 225.458C630.722 233.027 633.11 239.071 633.813 240.444C627.631 245.835 620.896 250.742 613.629 255.071C616.539 252.693 621.885 247.246 623.807 240.937C626.461 232.212 622.285 225.799 622.361 225.809C622.361 225.875 616.045 232.819 612.887 241.051C610.157 248.326 611.289 254.72 611.707 256.198C604.839 260.139 597.505 263.577 589.724 266.429C593.206 264.563 599.769 260.072 602.965 254.161C607.379 245.967 604.411 238.929 604.487 238.948C604.487 239.005 596.744 244.83 591.836 252.447C587.565 259.182 587.384 265.69 587.508 267.215C578.804 270.246 569.559 272.558 559.771 274.036C558.715 274.197 557.925 274.803 558.011 275.409C558.096 276.016 559.038 276.385 560.113 276.224C570.044 274.718 579.442 272.368 588.269 269.29C589.182 270.464 593.482 275.722 602.699 276.802C613.296 278.119 625.262 272.406 625.148 272.359C625.148 272.293 619.602 267.281 609.586 266.647C602.357 266.183 594.49 267.717 590.514 268.484C598.419 265.586 605.857 262.1 612.83 258.102C613.933 259.106 619.003 263.549 627.954 263.132C638.256 262.715 648.643 255.194 648.538 255.165C648.538 255.099 642.232 251.092 632.539 252.087C625.547 252.797 618.385 255.563 614.789 256.956C622.171 252.56 629 247.578 635.278 242.112C636.543 242.898 642.27 246.374 650.783 244.423C660.59 242.244 669.218 233.103 669.123 233.093C669.113 233.027 662.207 230.204 653.028 232.857C646.398 234.761 640.073 238.692 636.914 240.662C642.679 235.481 647.958 229.873 652.724 223.923C654.093 224.492 660.286 226.964 668.248 223.658C677.427 219.926 684.333 209.543 684.238 209.553C684.219 209.496 676.951 207.857 668.409 211.959C662.245 214.915 656.766 219.793 654.055 222.237C658.935 215.966 663.273 209.316 667.049 202.391C668.495 202.713 674.992 204.078 682.24 199.493C690.592 194.273 695.614 182.905 695.529 182.924C695.5 182.868 688.052 182.508 680.357 187.992C674.802 191.943 670.283 197.655 668.057 200.516C671.577 193.828 674.573 186.894 677.046 179.77C678.53 179.846 685.16 180.12 691.553 174.408Z" fill="#372E6D"/>
<path d="M487.643 75H495.743V61.15H507.493V55.05H495.743V45.6H510.593V39.25H487.643V75ZM521.289 75.55C525.389 75.55 527.689 73.95 529.189 71.85V75H536.239V57.95C536.239 50.85 531.689 48.25 525.289 48.25C518.889 48.25 513.989 51 513.539 57.2H520.389C520.689 54.95 521.989 53.5 524.839 53.5C528.139 53.5 529.089 55.2 529.089 58.3V59.35H526.139C518.139 59.35 512.539 61.65 512.539 67.75C512.539 73.25 516.539 75.55 521.289 75.55ZM523.439 70.5C520.789 70.5 519.639 69.25 519.639 67.35C519.639 64.55 522.089 63.65 526.289 63.65H529.089V65.85C529.089 68.75 526.639 70.5 523.439 70.5ZM551.962 75.55C558.862 75.55 562.962 72.6 562.962 66.95C562.962 61.35 559.362 59.7 552.812 58.75C549.012 58.2 547.762 57.55 547.762 55.9C547.762 54.3 549.112 53.2 551.462 53.2C553.962 53.2 555.162 54.2 555.562 56.35H562.212C561.562 50.35 557.212 48.25 551.412 48.25C546.062 48.25 541.062 50.95 541.062 56.4C541.062 61.5 543.762 63.5 550.712 64.55C554.462 65.1 556.012 65.85 556.012 67.65C556.012 69.45 554.712 70.5 551.912 70.5C548.762 70.5 547.612 69.15 547.312 66.8H540.562C540.812 72.45 544.912 75.55 551.962 75.55ZM577.109 75.5C579.059 75.5 580.509 75.15 581.509 74.8V69.2C580.659 69.55 579.859 69.7 578.759 69.7C576.909 69.7 575.859 68.7 575.859 66.6V54H581.359V48.85H575.859V43.2H568.659V48.85H565.309V54H568.659V67.25C568.659 72.7 571.609 75.5 577.109 75.5ZM437.044 110.55C445.844 110.55 452.194 106 453.094 97.15H445.144C444.494 101.75 441.394 104 436.944 104C431.044 104 427.644 99.7 427.644 92.3V91.9C427.644 84.5 431.244 80.1 436.894 80.1C441.394 80.1 443.794 82.4 444.394 86.7H452.694C451.844 77.9 445.444 73.7 436.844 73.7C426.694 73.7 419.094 81.1 419.094 91.95V92.35C419.094 103.35 425.344 110.55 437.044 110.55ZM469.944 110.55C477.794 110.55 483.744 105.3 483.744 97.05V96.65C483.744 88.5 477.844 83.25 469.994 83.25C462.144 83.25 456.194 88.6 456.194 96.8V97.2C456.194 105.35 462.144 110.55 469.944 110.55ZM469.994 105.05C465.894 105.05 463.594 102.05 463.594 97.05V96.65C463.594 91.65 465.994 88.75 469.994 88.75C474.044 88.75 476.394 91.75 476.394 96.75V97.1C476.394 102.05 474.044 105.05 469.994 105.05ZM488.604 110H495.854V94.55C495.854 91 498.104 89.2 500.904 89.2C503.454 89.2 505.004 90.7 505.004 94.05V110H512.204V94.55C512.204 91 514.454 89.2 517.254 89.2C519.854 89.2 521.354 90.7 521.354 94.05V110H528.554V93.25C528.554 86.3 524.804 83.25 519.954 83.25C516.654 83.25 513.254 84.65 511.154 87.8C509.904 84.7 507.304 83.25 503.854 83.25C499.954 83.25 497.154 85.4 495.854 87.85V83.85H488.604V110ZM534.747 118.9H541.997V106C543.347 108.55 546.297 110.55 550.347 110.55C556.847 110.55 561.747 105.7 561.747 97.05V96.65C561.747 88 556.747 83.25 550.347 83.25C546.497 83.25 543.447 85.45 541.997 87.95V83.85H534.747V118.9ZM548.197 104.9C544.247 104.9 541.747 102.35 541.747 97.1V96.7C541.747 91.45 544.347 88.8 548.147 88.8C551.797 88.8 554.397 91.4 554.397 96.7V97.1C554.397 102.2 552.197 104.9 548.197 104.9ZM573.633 110.55C577.733 110.55 580.033 108.95 581.533 106.85V110H588.583V92.95C588.583 85.85 584.033 83.25 577.633 83.25C571.233 83.25 566.333 86 565.883 92.2H572.733C573.033 89.95 574.333 88.5 577.183 88.5C580.483 88.5 581.433 90.2 581.433 93.3V94.35H578.483C570.483 94.35 564.883 96.65 564.883 102.75C564.883 108.25 568.883 110.55 573.633 110.55ZM575.783 105.5C573.133 105.5 571.983 104.25 571.983 102.35C571.983 99.55 574.433 98.65 578.633 98.65H581.433V100.85C581.433 103.75 578.983 105.5 575.783 105.5ZM594.805 110H602.055V94.9C602.055 91.05 604.405 89.15 607.505 89.15C610.705 89.15 612.105 90.85 612.105 94.4V110H619.355V93.35C619.355 86.35 615.705 83.25 610.555 83.25C606.205 83.25 603.355 85.4 602.055 88V83.85H594.805V110ZM628.037 118.9H635.037L649.187 83.85H642.237L636.387 99.55L630.037 83.85H622.237L632.637 107.35L628.037 118.9Z" fill="#1CC283"/>
<path d="M449.95 144.179C452.67 144.179 454.85 142.339 454.85 139.319C454.85 136.399 452.97 134.579 450.41 134.579C449.05 134.579 448.07 135.019 447.49 135.559V131.199H454.09V129.699H446.05V137.359H446.69C447.45 136.499 448.41 135.979 450.07 135.979C451.89 135.979 453.07 137.299 453.07 139.319C453.07 141.479 451.87 142.779 449.93 142.779C447.75 142.779 447.13 141.699 446.85 140.139H445.19C445.39 142.479 446.87 144.179 449.95 144.179ZM462.851 144.179C466.371 144.179 468.391 141.379 468.391 137.219V136.419C468.391 132.339 466.331 129.519 462.811 129.519C459.311 129.519 457.171 132.239 457.171 136.459V137.259C457.171 141.419 459.431 144.179 462.851 144.179ZM462.851 142.739C460.471 142.739 458.951 140.859 458.951 137.239V136.439C458.951 132.919 460.391 130.919 462.811 130.919C465.231 130.919 466.631 133.079 466.631 136.399V137.199C466.631 140.819 465.351 142.739 462.851 142.739ZM476.677 143.999H478.277V131.959L483.177 143.999H483.717L488.457 131.959V143.999H490.197V129.699H487.797L483.517 140.839L479.097 129.699H476.677V143.999ZM498.026 144.179C501.006 144.179 503.186 141.999 503.186 138.839V138.679C503.186 135.539 501.006 133.359 498.046 133.359C495.086 133.359 492.906 135.559 492.906 138.699V138.859C492.906 141.919 495.046 144.179 498.026 144.179ZM498.046 142.799C495.926 142.799 494.626 141.239 494.626 138.859V138.699C494.626 136.299 495.946 134.739 498.046 134.739C500.126 134.739 501.466 136.299 501.466 138.719V138.859C501.466 141.219 500.146 142.799 498.046 142.799ZM508.996 144.179C511.536 144.179 512.836 142.899 512.836 140.999C512.836 138.779 511.316 138.299 509.156 137.899C507.236 137.559 506.716 137.179 506.716 136.239C506.716 135.339 507.496 134.739 508.696 134.739C510.016 134.739 510.656 135.239 510.896 136.379H512.496C512.216 134.119 510.596 133.359 508.716 133.359C507.076 133.359 505.176 134.359 505.176 136.299C505.176 138.119 506.096 138.879 508.816 139.379C510.436 139.679 511.256 140.039 511.256 141.139C511.256 142.259 510.556 142.799 508.976 142.799C507.296 142.799 506.636 142.019 506.516 140.779H504.896C504.996 142.919 506.496 144.179 508.996 144.179ZM518.546 144.139C519.226 144.139 519.626 144.039 519.966 143.919V142.519C519.606 142.659 519.206 142.739 518.686 142.739C517.846 142.739 517.386 142.239 517.386 141.219V134.939H519.826V133.539H517.386V131.159H515.726V133.539H514.226V134.939H515.726V141.379C515.726 143.019 516.646 144.139 518.546 144.139ZM527.988 143.999H529.728V129.699H527.988V143.999ZM533.315 143.999H534.975V137.659C534.975 135.779 536.355 134.799 537.895 134.799C539.575 134.799 540.355 135.619 540.355 137.459V143.999H542.015V137.579C542.015 134.539 540.495 133.359 538.335 133.359C536.615 133.359 535.455 134.219 534.975 135.199V133.539H533.315V143.999ZM545.268 143.999H546.928V137.659C546.928 135.779 548.308 134.799 549.848 134.799C551.528 134.799 552.308 135.619 552.308 137.459V143.999H553.968V137.579C553.968 134.539 552.448 133.359 550.288 133.359C548.568 133.359 547.408 134.219 546.928 135.199V133.539H545.268V143.999ZM561.561 144.179C564.541 144.179 566.721 141.999 566.721 138.839V138.679C566.721 135.539 564.541 133.359 561.581 133.359C558.621 133.359 556.441 135.559 556.441 138.699V138.859C556.441 141.919 558.581 144.179 561.561 144.179ZM561.581 142.799C559.461 142.799 558.161 141.239 558.161 138.859V138.699C558.161 136.299 559.481 134.739 561.581 134.739C563.661 134.739 565.001 136.299 565.001 138.719V138.859C565.001 141.219 563.681 142.799 561.581 142.799ZM571.618 143.999H573.738L577.498 133.539H575.778L572.718 142.319L569.618 133.539H567.818L571.618 143.999ZM582.204 144.179C583.744 144.179 584.684 143.659 585.464 142.679V143.999H587.124V137.099C587.124 134.179 585.304 133.359 583.304 133.359C581.284 133.359 579.384 134.239 579.164 136.619H580.824C580.984 135.339 581.784 134.739 583.224 134.739C584.824 134.739 585.464 135.439 585.464 137.099V137.859H583.964C581.284 137.859 578.724 138.679 578.724 141.099C578.724 143.239 580.264 144.179 582.204 144.179ZM582.364 142.859C580.904 142.859 580.384 142.179 580.384 141.099C580.384 139.559 581.924 139.039 584.024 139.039H585.464V140.339C585.464 141.959 584.124 142.859 582.364 142.859ZM593.565 144.139C594.245 144.139 594.645 144.039 594.985 143.919V142.519C594.625 142.659 594.225 142.739 593.705 142.739C592.865 142.739 592.405 142.239 592.405 141.219V134.939H594.845V133.539H592.405V131.159H590.745V133.539H589.245V134.939H590.745V141.379C590.745 143.019 591.665 144.139 593.565 144.139ZM598.334 131.359C598.934 131.359 599.434 130.859 599.434 130.259C599.434 129.659 598.934 129.159 598.334 129.159C597.734 129.159 597.234 129.659 597.234 130.259C597.234 130.859 597.734 131.359 598.334 131.359ZM597.534 143.999H599.194V133.539H597.534V143.999ZM605.212 143.999H607.332L611.092 133.539H609.372L606.312 142.319L603.212 133.539H601.412L605.212 143.999ZM617.263 144.179C619.623 144.179 621.363 143.079 621.723 140.979H620.063C619.843 142.199 618.903 142.799 617.283 142.799C615.143 142.799 614.003 141.479 613.923 139.099H621.803V138.559C621.803 134.819 619.523 133.359 617.103 133.359C614.223 133.359 612.203 135.559 612.203 138.719V138.879C612.203 142.099 614.303 144.179 617.263 144.179ZM613.983 137.759C614.263 135.899 615.403 134.739 617.103 134.739C618.823 134.739 619.943 135.599 620.103 137.759H613.983Z" fill="white"/>
<path d="M488.236 195.24H498.82V193.224H488.236V195.24ZM502.338 201H514.746V198.528H507.45L511.266 194.808C513.306 192.84 514.626 190.896 514.626 188.664C514.626 185.64 512.514 183.6 508.962 183.6C505.338 183.6 503.082 185.76 502.866 189.504H505.794C506.082 187.08 507.162 186.096 508.866 186.096C510.522 186.096 511.434 187.104 511.434 188.712C511.434 190.344 510.45 191.856 508.818 193.584L502.338 200.424V201ZM526.56 201.24C531.048 201.24 533.736 197.952 533.736 192.792V191.928C533.736 186.768 530.904 183.6 526.56 183.6C522.24 183.6 519.36 186.792 519.36 192V192.864C519.36 198.024 522.192 201.24 526.56 201.24ZM526.632 198.696C524.064 198.696 522.576 196.728 522.576 192.84V191.976C522.576 188.16 523.992 186.096 526.584 186.096C529.152 186.096 530.544 188.304 530.544 191.952V192.792C530.544 196.68 529.272 198.696 526.632 198.696ZM537.724 201H550.132V198.528H542.836L546.652 194.808C548.692 192.84 550.012 190.896 550.012 188.664C550.012 185.64 547.9 183.6 544.348 183.6C540.724 183.6 538.468 185.76 538.252 189.504H541.18C541.468 187.08 542.548 186.096 544.252 186.096C545.908 186.096 546.82 187.104 546.82 188.712C546.82 190.344 545.836 191.856 544.204 193.584L537.724 200.424V201ZM558.008 201H561.224V183.84H558.368L554.384 186.672V189.48L558.008 187.008V201ZM567.15 195.24H577.734V193.224H567.15V195.24Z" fill="#1CC283"/>
<path d="M899.247 274.036C889.459 272.548 880.213 270.237 871.509 267.206C871.633 265.671 871.452 259.172 867.181 252.437C862.273 244.821 854.53 238.995 854.53 238.938C854.606 238.919 851.638 245.958 856.052 254.152C859.248 260.063 865.811 264.563 869.293 266.419C861.512 263.568 854.178 260.139 847.31 256.189C847.729 254.711 848.861 248.316 846.131 241.041C842.973 232.8 836.647 225.856 836.656 225.799C836.723 225.799 832.557 232.203 835.211 240.928C837.132 247.227 842.478 252.674 845.389 255.061C838.121 250.732 831.387 245.825 825.204 240.435C825.898 239.061 828.286 233.027 827.116 225.449C825.727 216.866 820.923 208.985 820.933 208.928C820.999 208.928 815.739 214.479 816.605 223.459C817.233 229.948 821.285 236.182 823.596 239.004C817.917 233.899 812.724 228.376 808.015 222.512C808.938 221.281 812.362 215.758 812.553 208.141C812.724 199.502 809.356 190.986 809.375 190.929C809.433 190.948 803.335 195.523 802.622 204.466C802.108 210.927 804.962 217.7 806.693 220.845C801.889 214.668 797.618 208.123 793.899 201.302C795.022 200.25 799.369 195.429 800.9 188.002C802.593 179.571 800.729 170.638 800.757 170.59C800.815 170.619 794.032 174.058 791.787 182.706C790.17 188.959 791.778 196.073 792.91 199.445C789.447 192.861 786.489 186.022 784.054 179.012C785.338 178.169 790.418 174.143 793.138 167.104C796.182 159.1 795.783 149.996 795.821 149.949C795.868 149.987 788.62 152.251 784.996 160.388C782.389 166.271 782.817 173.537 783.379 177.032C780.877 169.482 778.975 161.743 777.7 153.899C779.108 153.293 784.805 150.242 788.696 143.801C793.072 136.469 794.232 127.431 794.28 127.394C794.318 127.441 786.784 128.388 781.819 135.758C778.242 141.082 777.415 148.301 777.367 151.834C776.273 144.502 775.721 137.094 775.721 129.677C777.205 129.317 783.331 127.252 788.22 121.539C793.728 115.031 796.372 106.278 796.42 106.24C796.458 106.288 788.848 105.975 782.741 112.436C778.337 117.106 776.349 124.097 775.74 127.574C775.845 120.052 776.52 112.521 777.785 105.075C779.317 104.971 785.7 103.967 791.493 99.1262C798.027 93.6034 802.175 85.3619 802.241 85.3335C802.27 85.3903 794.793 83.7989 787.64 89.1795C782.475 93.0729 779.336 99.6661 778.147 103.001C779.498 95.678 781.41 88.4312 783.911 81.3454C785.443 81.4874 791.921 81.5632 798.503 77.7077C805.942 73.3028 811.582 65.7718 811.658 65.7528C811.677 65.8096 804.553 62.9962 796.486 67.1738C790.665 70.1956 786.394 76.2299 784.634 79.3466C787.431 71.7871 790.903 64.4171 795.06 57.3218C796.553 57.7386 802.936 58.9512 810.251 56.2703C818.507 53.1916 825.755 46.6268 825.832 46.6268C825.851 46.6836 819.316 42.6292 810.412 45.3953C803.982 47.3941 798.522 52.6611 796.173 55.4651C800.158 48.9003 804.743 42.5818 809.946 36.5854C811.354 37.2391 817.48 39.5031 825.356 38.0064C834.259 36.2633 843.011 30.8258 843.096 30.8353C843.106 30.9016 837.36 25.7767 827.801 27.1219C820.895 28.0976 814.341 32.4931 811.43 34.9087C813.998 32.0479 816.7 29.2628 819.554 26.563C823.13 24.981 829.475 21.9591 835.915 17.2889C845.332 10.3547 852.494 1.76268 852.551 1.71532C852.656 1.6869 840.861 2.68156 830.578 10.2126C823.682 15.2333 819.734 21.5328 818.003 24.981C815.111 27.7187 812.362 30.5417 809.756 33.4499C811.811 30.1912 816.005 23.5695 818.326 16.6353C821.542 7.02967 819.002 0.000705227 818.916 0.000705227C818.869 -0.0940248 808.567 9.3695 806.132 19.4677C803.915 28.2492 807.464 33.914 808.253 35.174C802.974 41.2556 798.313 47.6688 794.27 54.3378C795.63 50.8612 798.37 43.8133 799.178 36.7749C800.31 27.0272 796.391 20.6613 796.315 20.6708C796.258 20.5855 788.363 31.2521 788.002 41.3882C787.602 50.2076 792.13 55.1336 793.138 56.223C788.924 63.4224 785.395 70.9061 782.561 78.5887C783.207 74.989 784.492 67.6853 783.845 60.7605C782.951 51.1549 777.833 45.6985 777.766 45.7174C777.7 45.6416 772.268 57.2555 773.914 67.1264C775.274 75.7279 780.63 79.7349 781.828 80.6159C779.288 87.8059 777.338 95.157 775.969 102.593C775.988 98.9651 775.969 91.633 774.095 84.9925C771.498 75.7847 765.486 71.304 765.429 71.3419C765.363 71.2756 762.157 83.4578 765.486 92.8266C768.321 101.002 774.266 104.043 775.598 104.706C774.314 112.265 773.629 119.9 773.524 127.545C772.934 123.974 771.688 116.784 768.701 110.598C764.573 102.025 757.867 98.6525 757.819 98.6904C757.743 98.6336 756.716 111.072 761.558 119.711C765.724 127.261 772.078 129.241 773.505 129.667C773.505 137.198 774.066 144.72 775.179 152.166C774.028 148.746 771.641 141.868 767.684 136.279C762.214 128.53 755.051 126.342 755.004 126.38C754.928 126.333 755.955 138.723 762.119 146.434C767.446 153.179 774.028 154.079 775.503 154.269C776.806 162.226 778.727 170.088 781.267 177.752C779.545 174.579 776.016 168.213 771.175 163.41C764.468 156.741 757.049 155.86 757.011 155.907C756.925 155.869 760.064 167.891 767.446 174.399C773.838 180.101 780.468 179.836 781.952 179.76C784.425 186.875 787.421 193.818 790.941 200.506C788.715 197.645 784.197 191.933 778.642 187.983C770.946 182.508 763.498 182.858 763.47 182.915C763.384 182.896 768.406 194.254 776.758 199.483C783.997 204.078 790.494 202.713 791.949 202.391C795.725 209.316 800.054 215.957 804.933 222.237C802.222 219.793 796.743 214.915 790.579 211.959C782.047 207.857 774.77 209.496 774.751 209.553C774.656 209.553 781.562 219.926 790.741 223.658C798.703 226.955 804.895 224.492 806.265 223.923C811.04 229.873 816.319 235.481 822.074 240.662C818.916 238.692 812.591 234.761 805.961 232.857C796.781 230.204 789.875 233.027 789.866 233.093C789.771 233.103 798.408 242.244 808.205 244.423C816.719 246.374 822.455 242.907 823.71 242.112C829.988 247.587 836.828 252.56 844.2 256.956C840.604 255.563 833.441 252.807 826.45 252.087C816.757 251.092 810.45 255.099 810.45 255.165C810.346 255.194 820.743 262.706 831.035 263.132C839.986 263.549 845.056 259.106 846.159 258.102C853.132 262.1 860.57 265.586 868.475 268.484C864.499 267.717 856.632 266.183 849.403 266.647C839.386 267.281 833.831 272.293 833.841 272.359C833.736 272.406 845.693 278.109 856.29 276.802C865.507 275.712 869.797 270.464 870.72 269.29C879.556 272.368 888.945 274.708 898.876 276.224C899.951 276.385 900.892 276.016 900.978 275.409C901.064 274.803 900.265 274.197 899.218 274.036" fill="#372E6D"/>
<path d="M1054.55 174.408C1061.93 167.9 1065.07 155.879 1064.99 155.917C1064.95 155.869 1057.53 156.75 1050.82 163.419C1045.98 168.222 1042.45 174.588 1040.73 177.762C1043.27 170.098 1045.2 162.235 1046.51 154.278C1047.98 154.089 1054.56 153.189 1059.89 146.444C1066.05 138.742 1067.09 126.342 1067 126.389C1066.96 126.342 1059.8 128.54 1054.32 136.289C1050.37 141.878 1047.98 148.755 1046.83 152.175C1047.94 144.729 1048.5 137.208 1048.5 129.677C1049.93 129.25 1056.28 127.261 1060.45 119.72C1065.29 111.081 1064.26 98.6431 1064.19 98.6999C1064.14 98.662 1057.43 102.025 1053.31 110.607C1050.32 116.793 1049.07 123.983 1048.48 127.555C1048.38 119.91 1047.69 112.275 1046.41 104.715C1047.74 104.052 1053.69 101.011 1056.52 92.8361C1059.85 83.4673 1056.65 71.285 1056.58 71.3513C1056.52 71.3229 1050.5 75.7942 1047.91 85.0019C1046.04 91.6425 1046.02 98.9746 1046.04 102.612C1044.67 95.1759 1042.72 87.8249 1040.18 80.6254C1041.38 79.7444 1046.74 75.7374 1048.09 67.1359C1049.73 57.265 1044.3 45.6511 1044.24 45.7269C1044.17 45.7079 1039.06 51.1739 1038.16 60.77C1037.52 67.6948 1038.8 74.989 1039.45 78.5982C1036.6 70.9251 1033.08 63.4319 1028.87 56.2324C1029.88 55.143 1034.41 50.2171 1034.01 41.3977C1033.64 31.2711 1025.75 20.595 1025.69 20.6803C1025.62 20.6708 1021.7 27.0366 1022.83 36.7844C1023.64 43.8228 1026.38 50.8707 1027.74 54.3473C1023.69 47.6783 1019.03 41.2651 1013.75 35.1834C1014.54 33.9235 1018.09 28.2587 1015.88 19.4772C1013.45 9.3695 1003.15 -0.0940248 1003.09 0.000705226C1003.01 0.000705226 1000.46 7.02967 1003.68 16.6448C1005.99 23.579 1010.2 30.2006 1012.25 33.4593C1009.65 30.5511 1006.9 27.7282 1004 24.9905C1002.28 21.5328 998.326 15.2428 991.43 10.2221C981.147 2.69104 969.352 1.69637 969.456 1.72479C969.513 1.77216 976.676 10.3642 986.093 17.2984C992.523 21.9781 998.878 25 1002.45 26.5725C1005.31 29.2723 1008.01 32.0573 1010.58 34.9087C1007.67 32.4931 1001.11 28.0976 994.207 27.1219C984.638 25.7767 978.902 30.8922 978.912 30.8353C979.007 30.8353 987.758 36.2633 996.652 38.0064C1004.53 39.5031 1010.65 37.2485 1012.06 36.5854C1017.26 42.5724 1021.85 48.8909 1025.84 55.4651C1023.48 52.6611 1018.03 47.4036 1011.6 45.3953C1002.69 42.6292 996.157 46.6837 996.176 46.6268C996.262 46.6268 1003.5 53.1916 1011.76 56.2703C1019.07 58.9512 1025.45 57.7386 1026.95 57.3218C1031.1 64.4171 1034.58 71.7871 1037.37 79.3466C1035.62 76.2299 1031.34 70.1956 1025.52 67.1738C1017.45 62.9962 1010.32 65.8096 1010.35 65.7528C1010.43 65.7718 1016.07 73.3028 1023.5 77.7077C1030.09 81.5538 1036.56 81.4875 1038.1 81.3454C1040.6 88.4312 1042.52 95.6685 1043.86 103.001C1042.67 99.6567 1039.53 93.0729 1034.37 89.1795C1027.21 83.7989 1019.74 85.3903 1019.77 85.3335C1019.83 85.3619 1023.98 93.6034 1030.52 99.1262C1036.31 103.967 1042.69 104.971 1044.22 105.075C1045.49 112.521 1046.16 120.043 1046.27 127.574C1045.66 124.097 1043.67 117.106 1039.27 112.426C1033.16 105.966 1025.55 106.278 1025.59 106.231C1025.64 106.269 1028.29 115.012 1033.79 121.53C1038.68 127.242 1044.8 129.307 1046.29 129.667C1046.29 137.085 1045.73 144.502 1044.64 151.834C1044.59 148.301 1043.77 141.082 1040.2 135.758C1035.23 128.388 1027.7 127.441 1027.74 127.394C1027.79 127.432 1028.95 136.469 1033.32 143.801C1037.21 150.242 1042.92 153.293 1044.32 153.899C1043.03 161.743 1041.14 169.482 1038.64 177.032C1039.2 173.537 1039.63 166.271 1037.02 160.398C1033.41 152.26 1026.15 149.996 1026.21 149.958C1026.24 150.006 1025.84 159.1 1028.89 167.114C1031.61 174.152 1036.7 178.178 1037.97 179.021C1035.54 186.031 1032.58 192.871 1029.12 199.455C1030.25 196.082 1031.86 188.968 1030.24 182.716C1027.99 174.067 1021.21 170.628 1021.27 170.6C1021.3 170.657 1019.43 179.58 1021.13 188.011C1022.66 195.438 1027.01 200.26 1028.13 201.311C1024.41 208.132 1020.14 214.678 1015.33 220.854C1017.06 217.719 1019.92 210.945 1019.4 204.485C1018.69 195.542 1012.59 190.967 1012.65 190.948C1012.67 191.005 1009.3 199.521 1009.47 208.16C1009.67 215.767 1013.09 221.299 1014.01 222.531C1009.31 228.395 1004.11 233.908 998.431 239.014C1000.73 236.191 1004.78 229.948 1005.41 223.459C1006.28 214.479 1001.02 208.937 1001.08 208.928C1001.09 208.985 996.29 216.866 994.902 225.458C993.722 233.027 996.11 239.071 996.813 240.444C990.631 245.835 983.896 250.742 976.629 255.071C979.539 252.693 984.885 247.246 986.807 240.937C989.461 232.212 985.285 225.799 985.361 225.809C985.361 225.875 979.045 232.819 975.887 241.051C973.157 248.326 974.289 254.72 974.707 256.198C967.839 260.139 960.505 263.577 952.724 266.429C956.206 264.563 962.769 260.072 965.965 254.161C970.379 245.967 967.411 238.929 967.487 238.948C967.487 239.005 959.744 244.83 954.836 252.447C950.565 259.182 950.384 265.69 950.508 267.215C941.804 270.246 932.559 272.558 922.771 274.036C921.715 274.197 920.925 274.803 921.011 275.409C921.096 276.016 922.038 276.385 923.113 276.224C933.044 274.718 942.442 272.368 951.269 269.29C952.182 270.464 956.482 275.722 965.699 276.802C976.296 278.119 988.262 272.406 988.148 272.359C988.148 272.293 982.602 267.281 972.586 266.647C965.357 266.183 957.49 267.717 953.514 268.484C961.419 265.586 968.857 262.1 975.83 258.102C976.933 259.106 982.003 263.549 990.954 263.132C1001.26 262.715 1011.64 255.194 1011.54 255.165C1011.54 255.099 1005.23 251.092 995.539 252.087C988.547 252.797 981.385 255.563 977.789 256.956C985.171 252.56 992 247.578 998.278 242.112C999.543 242.898 1005.27 246.374 1013.78 244.423C1023.59 242.244 1032.22 233.103 1032.12 233.093C1032.11 233.027 1025.21 230.204 1016.03 232.857C1009.4 234.761 1003.07 238.692 999.914 240.662C1005.68 235.481 1010.96 229.873 1015.72 223.923C1017.09 224.492 1023.29 226.964 1031.25 223.658C1040.43 219.926 1047.33 209.543 1047.24 209.553C1047.22 209.496 1039.95 207.857 1031.41 211.959C1025.25 214.915 1019.77 219.793 1017.06 222.237C1021.94 215.966 1026.27 209.316 1030.05 202.391C1031.49 202.713 1037.99 204.078 1045.24 199.493C1053.59 194.273 1058.61 182.905 1058.53 182.924C1058.5 182.868 1051.05 182.508 1043.36 187.992C1037.8 191.943 1033.28 197.655 1031.06 200.516C1034.58 193.828 1037.57 186.894 1040.05 179.77C1041.53 179.846 1048.16 180.12 1054.55 174.408Z" fill="#372E6D"/>
<path d="M870.778 78H878.378L880.828 70.05H893.778L896.228 78H904.678L893.078 42.25H882.528L870.778 78ZM887.328 48.85L892.028 64.3H882.578L887.328 48.85ZM909.564 78H917.614V65H922.164C930.314 65 935.564 61.4 935.564 53.85V53.65C935.564 46.1 930.614 42.25 921.914 42.25H909.564V78ZM917.614 59.35V48.4H921.714C925.564 48.4 927.764 49.9 927.764 53.7V53.9C927.764 57.45 925.664 59.35 921.714 59.35H917.614ZM941.063 78H949.213V42.25H941.063V78ZM822.828 113H830.428L832.878 105.05H845.828L848.278 113H856.728L845.128 77.25H834.578L822.828 113ZM839.378 83.85L844.078 99.3H834.628L839.378 83.85ZM864.366 113H871.566L876.366 96.6L880.816 113H887.916L896.166 86.85H889.216L884.266 104.45L879.666 86.85H873.716L868.666 104.45L864.016 86.85H856.416L864.366 113ZM906.394 113.55C910.494 113.55 912.794 111.95 914.294 109.85V113H921.344V95.95C921.344 88.85 916.794 86.25 910.394 86.25C903.994 86.25 899.094 89 898.644 95.2H905.494C905.794 92.95 907.094 91.5 909.944 91.5C913.244 91.5 914.194 93.2 914.194 96.3V97.35H911.244C903.244 97.35 897.644 99.65 897.644 105.75C897.644 111.25 901.644 113.55 906.394 113.55ZM908.544 108.5C905.894 108.5 904.744 107.25 904.744 105.35C904.744 102.55 907.194 101.65 911.394 101.65H914.194V103.85C914.194 106.75 911.744 108.5 908.544 108.5ZM927.566 113H934.816V99.9C934.816 94.9 937.916 93.15 943.266 93.2V86.45C939.016 86.5 936.466 88.35 934.816 91.85V86.85H927.566V113ZM957.288 113.55C961.138 113.55 964.338 111.3 965.688 108.65V113H972.888V75H965.688V90.75C964.238 88.1 961.638 86.25 957.438 86.25C950.888 86.25 945.938 91.3 945.938 99.9V100.3C945.938 109 950.938 113.55 957.288 113.55ZM959.438 107.9C955.838 107.9 953.338 105.35 953.338 100.15V99.75C953.338 94.55 955.588 91.8 959.638 91.8C963.588 91.8 965.888 94.45 965.888 99.65V100.05C965.888 105.35 963.238 107.9 959.438 107.9ZM988.824 113.55C995.724 113.55 999.824 110.6 999.824 104.95C999.824 99.35 996.224 97.7 989.674 96.75C985.874 96.2 984.624 95.55 984.624 93.9C984.624 92.3 985.974 91.2 988.324 91.2C990.824 91.2 992.024 92.2 992.424 94.35H999.074C998.424 88.35 994.074 86.25 988.274 86.25C982.924 86.25 977.924 88.95 977.924 94.4C977.924 99.5 980.624 101.5 987.574 102.55C991.324 103.1 992.874 103.85 992.874 105.65C992.874 107.45 991.574 108.5 988.774 108.5C985.624 108.5 984.474 107.15 984.174 104.8H977.424C977.674 110.45 981.774 113.55 988.824 113.55Z" fill="#1CC283"/>
<path d="M810.966 143.999H815.866C818.726 143.999 820.566 142.699 820.566 139.999V139.919C820.566 138.059 819.786 136.999 817.706 136.499C819.346 135.939 819.866 134.779 819.866 133.479V133.399C819.866 130.579 817.926 129.699 815.266 129.699H810.966V143.999ZM812.666 135.939V131.059H815.226C817.226 131.059 818.166 131.719 818.166 133.339V133.419C818.166 135.179 817.366 135.939 815.266 135.939H812.666ZM812.666 142.639V137.299H815.586C817.886 137.299 818.866 138.139 818.866 139.899V139.979C818.866 141.719 817.906 142.639 815.826 142.639H812.666ZM827.567 144.179C829.927 144.179 831.667 143.079 832.027 140.979H830.367C830.147 142.199 829.207 142.799 827.587 142.799C825.447 142.799 824.307 141.479 824.227 139.099H832.107V138.559C832.107 134.819 829.827 133.359 827.407 133.359C824.527 133.359 822.507 135.559 822.507 138.719V138.879C822.507 142.099 824.607 144.179 827.567 144.179ZM824.287 137.759C824.567 135.899 825.707 134.739 827.407 134.739C829.127 134.739 830.247 135.599 830.407 137.759H824.287ZM837.992 144.179C840.532 144.179 841.832 142.899 841.832 140.999C841.832 138.779 840.312 138.299 838.152 137.899C836.232 137.559 835.712 137.179 835.712 136.239C835.712 135.339 836.492 134.739 837.692 134.739C839.012 134.739 839.652 135.239 839.892 136.379H841.492C841.212 134.119 839.592 133.359 837.712 133.359C836.072 133.359 834.172 134.359 834.172 136.299C834.172 138.119 835.092 138.879 837.812 139.379C839.432 139.679 840.252 140.039 840.252 141.139C840.252 142.259 839.552 142.799 837.972 142.799C836.292 142.799 835.632 142.019 835.512 140.779H833.892C833.992 142.919 835.492 144.179 837.992 144.179ZM847.542 144.139C848.222 144.139 848.622 144.039 848.962 143.919V142.519C848.602 142.659 848.202 142.739 847.682 142.739C846.842 142.739 846.382 142.239 846.382 141.219V134.939H848.822V133.539H846.382V131.159H844.722V133.539H843.222V134.939H844.722V141.379C844.722 143.019 845.642 144.139 847.542 144.139ZM857.604 131.359C858.204 131.359 858.704 130.859 858.704 130.259C858.704 129.659 858.204 129.159 857.604 129.159C857.004 129.159 856.504 129.659 856.504 130.259C856.504 130.859 857.004 131.359 857.604 131.359ZM856.804 143.999H858.464V133.539H856.804V143.999ZM861.862 143.999H863.522V137.659C863.522 135.779 864.902 134.799 866.442 134.799C868.122 134.799 868.902 135.619 868.902 137.459V143.999H870.562V137.579C870.562 134.539 869.042 133.359 866.882 133.359C865.162 133.359 864.002 134.219 863.522 135.199V133.539H861.862V143.999ZM879.228 143.999H880.968V138.179H883.288C886.008 138.179 888.288 136.999 888.288 133.959V133.879C888.288 130.899 886.028 129.699 883.288 129.699H879.228V143.999ZM880.968 136.799V131.099H883.408C885.348 131.099 886.548 131.859 886.548 133.879V133.959C886.548 135.799 885.448 136.799 883.408 136.799H880.968ZM893.251 144.179C894.791 144.179 895.731 143.659 896.511 142.679V143.999H898.171V137.099C898.171 134.179 896.351 133.359 894.351 133.359C892.331 133.359 890.431 134.239 890.211 136.619H891.871C892.031 135.339 892.831 134.739 894.271 134.739C895.871 134.739 896.511 135.439 896.511 137.099V137.859H895.011C892.331 137.859 889.771 138.679 889.771 141.099C889.771 143.239 891.311 144.179 893.251 144.179ZM893.411 142.859C891.951 142.859 891.431 142.179 891.431 141.099C891.431 139.559 892.971 139.039 895.071 139.039H896.511V140.339C896.511 141.959 895.171 142.859 893.411 142.859ZM902.079 147.639H903.759L909.539 133.539H907.839L904.939 141.039L901.739 133.539H899.959L904.059 142.919L902.079 147.639ZM911.725 143.999H913.385V137.599C913.385 135.719 914.785 134.799 916.145 134.799C917.585 134.799 918.365 135.559 918.365 137.399V143.999H920.025V137.599C920.025 135.719 921.425 134.799 922.785 134.799C924.225 134.799 925.005 135.559 925.005 137.399V143.999H926.665V137.519C926.665 134.479 925.025 133.359 923.145 133.359C921.845 133.359 920.285 133.959 919.565 135.319C919.025 133.919 917.845 133.359 916.505 133.359C915.005 133.359 913.865 134.159 913.385 135.139V133.539H911.725V143.999ZM934.208 144.179C936.568 144.179 938.308 143.079 938.668 140.979H937.008C936.788 142.199 935.848 142.799 934.228 142.799C932.088 142.799 930.948 141.479 930.868 139.099H938.748V138.559C938.748 134.819 936.468 133.359 934.048 133.359C931.168 133.359 929.148 135.559 929.148 138.719V138.879C929.148 142.099 931.248 144.179 934.208 144.179ZM930.928 137.759C931.208 135.899 932.348 134.739 934.048 134.739C935.768 134.739 936.888 135.599 937.048 137.759H930.928ZM941.295 143.999H942.955V137.659C942.955 135.779 944.335 134.799 945.875 134.799C947.555 134.799 948.335 135.619 948.335 137.459V143.999H949.995V137.579C949.995 134.539 948.475 133.359 946.315 133.359C944.595 133.359 943.435 134.219 942.955 135.199V133.539H941.295V143.999ZM956.428 144.139C957.108 144.139 957.508 144.039 957.848 143.919V142.519C957.488 142.659 957.088 142.739 956.568 142.739C955.728 142.739 955.268 142.239 955.268 141.219V134.939H957.708V133.539H955.268V131.159H953.608V133.539H952.108V134.939H953.608V141.379C953.608 143.019 954.528 144.139 956.428 144.139ZM963.598 144.179C966.138 144.179 967.438 142.899 967.438 140.999C967.438 138.779 965.918 138.299 963.758 137.899C961.838 137.559 961.318 137.179 961.318 136.239C961.318 135.339 962.098 134.739 963.298 134.739C964.618 134.739 965.258 135.239 965.498 136.379H967.098C966.818 134.119 965.198 133.359 963.318 133.359C961.678 133.359 959.778 134.359 959.778 136.299C959.778 138.119 960.698 138.879 963.418 139.379C965.038 139.679 965.858 140.039 965.858 141.139C965.858 142.259 965.158 142.799 963.578 142.799C961.898 142.799 961.238 142.019 961.118 140.779H959.498C959.598 142.919 961.098 144.179 963.598 144.179ZM974.3 143.999H975.94L977.32 139.879H983.22L984.62 143.999H986.34L981.5 129.699H979.22L974.3 143.999ZM980.28 131.139L982.76 138.499H977.8L980.28 131.139ZM988.857 143.999H990.597V138.179H992.917C995.637 138.179 997.917 136.999 997.917 133.959V133.879C997.917 130.899 995.657 129.699 992.917 129.699H988.857V143.999ZM990.597 136.799V131.099H993.037C994.977 131.099 996.177 131.859 996.177 133.879V133.959C996.177 135.799 995.077 136.799 993.037 136.799H990.597ZM1000.58 143.999H1002.32V129.699H1000.58V143.999ZM1009.14 144.179C1011.68 144.179 1012.98 142.899 1012.98 140.999C1012.98 138.779 1011.46 138.299 1009.3 137.899C1007.38 137.559 1006.86 137.179 1006.86 136.239C1006.86 135.339 1007.64 134.739 1008.84 134.739C1010.16 134.739 1010.8 135.239 1011.04 136.379H1012.64C1012.36 134.119 1010.74 133.359 1008.86 133.359C1007.22 133.359 1005.32 134.359 1005.32 136.299C1005.32 138.119 1006.24 138.879 1008.96 139.379C1010.58 139.679 1011.4 140.039 1011.4 141.139C1011.4 142.259 1010.7 142.799 1009.12 142.799C1007.44 142.799 1006.78 142.019 1006.66 140.779H1005.04C1005.14 142.919 1006.64 144.179 1009.14 144.179Z" fill="white"/>
<path d="M864.396 195.24H874.98V193.224H864.396V195.24ZM878.498 201H890.906V198.528H883.61L887.426 194.808C889.466 192.84 890.786 190.896 890.786 188.664C890.786 185.64 888.674 183.6 885.122 183.6C881.498 183.6 879.242 185.76 879.026 189.504H881.954C882.242 187.08 883.322 186.096 885.026 186.096C886.682 186.096 887.594 187.104 887.594 188.712C887.594 190.344 886.61 191.856 884.978 193.584L878.498 200.424V201ZM902.72 201.24C907.208 201.24 909.896 197.952 909.896 192.792V191.928C909.896 186.768 907.064 183.6 902.72 183.6C898.4 183.6 895.52 186.792 895.52 192V192.864C895.52 198.024 898.352 201.24 902.72 201.24ZM902.792 198.696C900.224 198.696 898.736 196.728 898.736 192.84V191.976C898.736 188.16 900.152 186.096 902.744 186.096C905.312 186.096 906.704 188.304 906.704 191.952V192.792C906.704 196.68 905.432 198.696 902.792 198.696ZM913.884 201H926.292V198.528H918.996L922.812 194.808C924.852 192.84 926.172 190.896 926.172 188.664C926.172 185.64 924.06 183.6 920.508 183.6C916.884 183.6 914.628 185.76 914.412 189.504H917.34C917.628 187.08 918.708 186.096 920.412 186.096C922.068 186.096 922.98 187.104 922.98 188.712C922.98 190.344 921.996 191.856 920.364 193.584L913.884 200.424V201ZM930.23 201H942.638V198.528H935.342L939.158 194.808C941.198 192.84 942.518 190.896 942.518 188.664C942.518 185.64 940.406 183.6 936.854 183.6C933.23 183.6 930.974 185.76 930.758 189.504H933.686C933.974 187.08 935.054 186.096 936.758 186.096C938.414 186.096 939.326 187.104 939.326 188.712C939.326 190.344 938.342 191.856 936.71 193.584L930.23 200.424V201ZM946.99 195.24H957.574V193.224H946.99V195.24Z" fill="#1CC283"/>
<path d="M144.247 274.036C134.459 272.548 125.213 270.237 116.509 267.206C116.633 265.671 116.452 259.172 112.181 252.437C107.273 244.821 99.5299 238.995 99.5299 238.938C99.606 238.919 96.6382 245.958 101.052 254.152C104.248 260.063 110.811 264.563 114.293 266.419C106.512 263.568 99.1779 260.139 92.3101 256.189C92.7287 254.711 93.8606 248.316 91.1306 241.041C87.9726 232.8 81.647 225.856 81.6565 225.799C81.7231 225.799 77.5567 232.203 80.2106 240.928C82.1321 247.227 87.4779 252.674 90.3887 255.061C83.1213 250.732 76.3867 245.825 70.2038 240.435C70.8982 239.061 73.2857 233.027 72.1157 225.449C70.727 216.866 65.9233 208.985 65.9328 208.928C65.9994 208.928 60.7392 214.479 61.6048 223.459C62.2326 229.948 66.2848 236.182 68.5962 239.004C62.9174 233.899 57.7238 228.376 53.0153 222.512C53.9379 221.281 57.3623 215.758 57.5526 208.141C57.7238 199.502 54.3565 190.986 54.3755 190.929C54.4326 190.948 48.3353 195.523 47.6218 204.466C47.1082 210.927 49.9618 217.7 51.6931 220.845C46.8894 214.668 42.6184 208.123 38.8992 201.302C40.0216 200.25 44.3687 195.429 45.9001 188.002C47.5933 179.571 45.7289 170.638 45.7574 170.59C45.8145 170.619 39.0323 174.058 36.7874 182.706C35.1704 188.959 36.7779 196.073 37.9099 199.445C34.4474 192.861 31.4892 186.022 29.054 179.012C30.3382 178.169 35.4177 174.143 38.1382 167.104C41.1821 159.1 40.7826 149.996 40.8206 149.949C40.8682 149.987 33.6199 152.251 29.9957 160.388C27.3894 166.271 27.8174 173.537 28.3787 177.032C25.877 169.482 23.9745 161.743 22.6999 153.899C24.1077 153.293 29.8055 150.242 33.696 143.801C38.0716 136.469 39.2321 127.431 39.2796 127.394C39.3177 127.441 31.784 128.388 26.8187 135.758C23.2421 141.082 22.4145 148.301 22.367 151.834C21.2731 144.502 20.7213 137.094 20.7213 129.677C22.2053 129.317 28.3311 127.252 33.2204 121.539C38.7279 115.031 41.3723 106.278 41.4199 106.24C41.4579 106.288 33.8482 105.975 27.7413 112.436C23.3372 117.106 21.3492 124.097 20.7404 127.574C20.845 120.052 21.5204 112.521 22.7855 105.075C24.317 104.971 30.6996 103.967 36.4926 99.1262C43.0274 93.6034 47.1748 85.3619 47.2414 85.3335C47.2699 85.3903 39.7933 83.7989 32.6401 89.1795C27.475 93.0729 24.336 99.6661 23.147 103.001C24.4977 95.678 26.4096 88.4312 28.9113 81.3454C30.4428 81.4874 36.9206 81.5632 43.5031 77.7077C50.9416 73.3028 56.5823 65.7718 56.6584 65.7528C56.6775 65.8096 49.5528 62.9962 41.4865 67.1738C35.665 70.1956 31.394 76.2299 29.6343 79.3466C32.4309 71.7871 35.9028 64.4171 40.0596 57.3218C41.5531 57.7386 47.9357 58.9512 55.2506 56.2703C63.5072 53.1916 70.7555 46.6268 70.8316 46.6268C70.8506 46.6836 64.3157 42.6292 55.4123 45.3953C48.9821 47.3941 43.5221 52.6611 41.1726 55.4651C45.1582 48.9003 49.7431 42.5818 54.9462 36.5854C56.354 37.2391 62.4799 39.5031 70.356 38.0064C79.2594 36.2633 88.0106 30.8258 88.0962 30.8353C88.1057 30.9016 82.3604 25.7767 72.8006 27.1219C65.8948 28.0976 59.3409 32.4931 56.4301 34.9087C58.9984 32.0479 61.6999 29.2628 64.5535 26.563C68.1301 24.981 74.4748 21.9591 80.9145 17.2889C90.3316 10.3547 97.4943 1.76268 97.5514 1.71532C97.656 1.6869 85.8609 2.68156 75.5782 10.2126C68.6818 15.2333 64.7343 21.5328 63.0031 24.981C60.1114 27.7187 57.3623 30.5417 54.756 33.4499C56.8106 30.1912 61.0055 23.5695 63.3265 16.6353C66.5416 7.02967 64.0018 0.000705227 63.9162 0.000705227C63.8687 -0.0940248 53.567 9.3695 51.1318 19.4677C48.9155 28.2492 52.4635 33.914 53.2531 35.174C47.9738 41.2556 43.3128 47.6688 39.2701 54.3378C40.6304 50.8612 43.3699 43.8133 44.1784 36.7749C45.3104 27.0272 41.3913 20.6613 41.3153 20.6708C41.2582 20.5855 33.3631 31.2521 33.0016 41.3882C32.6021 50.2076 37.1299 55.1336 38.1382 56.223C33.9243 63.4224 30.3953 70.9061 27.5606 78.5887C28.2074 74.989 29.4916 67.6853 28.8448 60.7605C27.9506 51.1549 22.8331 45.6985 22.7665 45.7174C22.6999 45.6416 17.2684 57.2555 18.914 67.1264C20.2743 75.7279 25.6296 79.7349 26.8282 80.6159C24.2884 87.8059 22.3384 95.157 20.9687 102.593C20.9877 98.9651 20.9687 91.633 19.0948 84.9925C16.4979 75.7847 10.4862 71.304 10.4292 71.3419C10.3626 71.2756 7.15696 83.4578 10.4862 92.8266C13.3209 101.002 19.266 104.043 20.5977 104.706C19.3135 112.265 18.6287 119.9 18.524 127.545C17.9343 123.974 16.6882 116.784 13.7013 110.598C9.57305 102.025 2.86696 98.6525 2.81939 98.6904C2.7433 98.6336 1.71598 111.072 6.55769 119.711C10.724 127.261 17.0782 129.241 18.505 129.667C18.505 137.198 19.0662 144.72 20.1792 152.166C19.0282 148.746 16.6406 141.868 12.6835 136.279C7.21403 128.53 0.0513456 126.342 0.00378462 126.38C-0.0723129 126.333 0.955004 138.723 7.11891 146.434C12.4457 153.179 19.0282 154.079 20.5026 154.269C21.8057 162.226 23.7272 170.088 26.267 177.752C24.5453 174.579 21.0162 168.213 16.1745 163.41C9.46842 156.741 2.04891 155.86 2.01086 155.907C1.92525 155.869 5.06427 167.891 12.4457 174.399C18.8379 180.101 25.4679 179.836 26.9518 179.76C29.425 186.875 32.4213 193.818 35.9409 200.506C33.715 197.645 29.1967 191.933 23.6416 187.983C15.9462 182.508 8.49818 182.858 8.46964 182.915C8.38403 182.896 13.4065 194.254 21.7582 199.483C28.997 204.078 35.4938 202.713 36.9492 202.391C40.7255 209.316 45.0535 215.957 49.9333 222.237C47.2223 219.793 41.7433 214.915 35.5794 211.959C27.047 207.857 19.7701 209.496 19.7511 209.553C19.656 209.553 26.5618 219.926 35.7411 223.658C43.7028 226.955 49.8953 224.492 51.265 223.923C56.0401 229.873 61.3194 235.481 67.0743 240.662C63.9162 238.692 57.5906 234.761 50.9606 232.857C41.7813 230.204 34.8755 233.027 34.866 233.093C34.7709 233.103 43.4079 242.244 53.2055 244.423C61.7189 246.374 67.4548 242.907 68.7104 242.112C74.9884 247.587 81.8277 252.56 89.1996 256.956C85.604 255.563 78.4414 252.807 71.4499 252.087C61.757 251.092 55.4504 255.099 55.4504 255.165C55.3457 255.194 65.7426 262.706 76.0348 263.132C84.9857 263.549 90.0557 259.106 91.1592 258.102C98.1316 262.1 105.57 265.586 113.475 268.484C109.499 267.717 101.632 266.183 94.4028 266.647C84.3865 267.281 78.8313 272.293 78.8409 272.359C78.7362 272.406 90.6931 278.109 101.29 276.802C110.507 275.712 114.797 270.464 115.72 269.29C124.556 272.368 133.945 274.708 143.876 276.224C144.951 276.385 145.892 276.016 145.978 275.409C146.064 274.803 145.265 274.197 144.218 274.036" fill="#372E6D"/>
<path d="M299.553 174.408C306.934 167.9 310.073 155.879 309.987 155.917C309.949 155.869 302.53 156.75 295.824 163.419C290.982 168.222 287.453 174.588 285.731 177.762C288.271 170.098 290.202 162.235 291.505 154.278C292.98 154.089 299.562 153.189 304.889 146.444C311.053 138.742 312.09 126.342 312.004 126.389C311.956 126.342 304.803 128.54 299.324 136.289C295.367 141.878 292.98 148.755 291.829 152.175C292.942 144.729 293.503 137.208 293.503 129.677C294.93 129.25 301.284 127.261 305.45 119.72C310.292 111.081 309.264 98.6431 309.188 98.6999C309.141 98.662 302.435 102.025 298.306 110.607C295.32 116.793 294.073 123.983 293.484 127.555C293.379 119.91 292.694 112.275 291.41 104.715C292.742 104.052 298.687 101.011 301.522 92.8361C304.851 83.4673 301.645 71.285 301.579 71.3513C301.522 71.3229 295.5 75.7942 292.913 85.0019C291.039 91.6425 291.02 98.9746 291.039 102.612C289.669 95.1759 287.719 87.8249 285.18 80.6254C286.378 79.7444 291.743 75.7374 293.094 67.1359C294.73 57.265 289.298 45.6511 289.241 45.7269C289.175 45.7079 284.057 51.1739 283.163 60.77C282.516 67.6948 283.8 74.989 284.447 78.5982C281.603 70.9251 278.083 63.4319 273.87 56.2324C274.878 55.143 279.406 50.2171 279.006 41.3977C278.645 31.2711 270.75 20.595 270.693 20.6803C270.616 20.6708 266.697 27.0366 267.829 36.7844C268.638 43.8228 271.377 50.8707 272.738 54.3473C268.685 47.6783 264.034 41.2651 258.755 35.1834C259.544 33.9235 263.092 28.2587 260.876 19.4772C258.45 9.3695 248.149 -0.0940248 248.092 0.000705226C248.006 0.000705226 245.457 7.02967 248.681 16.6448C250.993 23.579 255.197 30.2006 257.252 33.4593C254.645 30.5511 251.896 27.7282 249.005 24.9905C247.283 21.5328 243.326 15.2428 236.43 10.2221C226.147 2.69104 214.352 1.69637 214.456 1.72479C214.513 1.77216 221.676 10.3642 231.093 17.2984C237.523 21.9781 243.878 25 247.454 26.5725C250.308 29.2723 253.009 32.0573 255.578 34.9087C252.667 32.4931 246.113 28.0976 239.207 27.1219C229.638 25.7767 223.902 30.8922 223.912 30.8353C224.007 30.8353 232.758 36.2633 241.652 38.0064C249.528 39.5031 255.654 37.2485 257.062 36.5854C262.265 42.5724 266.85 48.8909 270.835 55.4651C268.476 52.6611 263.026 47.4036 256.595 45.3953C247.692 42.6292 241.157 46.6837 241.176 46.6268C241.262 46.6268 248.501 53.1916 256.757 56.2703C264.072 58.9512 270.455 57.7386 271.948 57.3218C276.105 64.4171 279.577 71.7871 282.373 79.3466C280.623 76.2299 276.343 70.1956 270.521 67.1738C262.455 62.9962 255.321 65.8096 255.349 65.7528C255.425 65.7718 261.066 73.3028 268.505 77.7077C275.087 81.5538 281.565 81.4875 283.096 81.3454C285.598 88.4312 287.52 95.6685 288.861 103.001C287.672 99.6567 284.533 93.0729 279.368 89.1795C272.214 83.7989 264.738 85.3903 264.766 85.3335C264.833 85.3619 268.98 93.6034 275.515 99.1262C281.308 103.967 287.691 104.971 289.222 105.075C290.487 112.521 291.163 120.043 291.267 127.574C290.659 124.097 288.671 117.106 284.266 112.426C278.16 105.966 270.55 106.278 270.588 106.231C270.645 106.269 273.289 115.012 278.787 121.53C283.677 127.242 289.803 129.307 291.286 129.667C291.286 137.085 290.735 144.502 289.641 151.834C289.593 148.301 288.766 141.082 285.199 135.758C280.233 128.388 272.7 127.441 272.738 127.394C272.785 127.432 273.946 136.469 278.321 143.801C282.212 150.242 287.919 153.293 289.317 153.899C288.033 161.743 286.14 169.482 283.639 177.032C284.2 173.537 284.628 166.271 282.022 160.398C278.407 152.26 271.149 149.996 271.206 149.958C271.244 150.006 270.845 159.1 273.889 167.114C276.609 174.152 281.698 178.178 282.973 179.021C280.538 186.031 277.579 192.871 274.117 199.455C275.249 196.082 276.856 188.968 275.239 182.716C272.994 174.067 266.212 170.628 266.269 170.6C266.298 170.657 264.433 179.58 266.127 188.011C267.658 195.438 272.005 200.26 273.128 201.311C269.408 208.132 265.137 214.678 260.334 220.854C262.065 217.719 264.919 210.945 264.405 204.485C263.692 195.542 257.594 190.967 257.651 190.948C257.67 191.005 254.303 199.521 254.474 208.16C254.674 215.767 258.089 221.299 259.012 222.531C254.313 228.395 249.109 233.908 243.431 239.014C245.733 236.191 249.785 229.948 250.413 223.459C251.278 214.479 246.018 208.937 246.084 208.928C246.094 208.985 241.29 216.866 239.902 225.458C238.722 233.027 241.11 239.071 241.813 240.444C235.631 245.835 228.896 250.742 221.629 255.071C224.539 252.693 229.885 247.246 231.807 240.937C234.461 232.212 230.285 225.799 230.361 225.809C230.361 225.875 224.045 232.819 220.887 241.051C218.157 248.326 219.289 254.72 219.707 256.198C212.839 260.139 205.505 263.577 197.724 266.429C201.206 264.563 207.769 260.072 210.965 254.161C215.379 245.967 212.411 238.929 212.487 238.948C212.487 239.005 204.744 244.83 199.836 252.447C195.565 259.182 195.384 265.69 195.508 267.215C186.804 270.246 177.559 272.558 167.771 274.036C166.715 274.197 165.925 274.803 166.011 275.409C166.096 276.016 167.038 276.385 168.113 276.224C178.044 274.718 187.442 272.368 196.269 269.29C197.182 270.464 201.482 275.722 210.699 276.802C221.296 278.119 233.262 272.406 233.148 272.359C233.148 272.293 227.602 267.281 217.586 266.647C210.357 266.183 202.49 267.717 198.514 268.484C206.419 265.586 213.857 262.1 220.83 258.102C221.933 259.106 227.003 263.549 235.954 263.132C246.256 262.715 256.643 255.194 256.538 255.165C256.538 255.099 250.232 251.092 240.539 252.087C233.547 252.797 226.385 255.563 222.789 256.956C230.171 252.56 237 247.578 243.278 242.112C244.543 242.898 250.27 246.374 258.783 244.423C268.59 242.244 277.218 233.103 277.123 233.093C277.113 233.027 270.207 230.204 261.028 232.857C254.398 234.761 248.073 238.692 244.914 240.662C250.679 235.481 255.958 229.873 260.724 223.923C262.093 224.492 268.286 226.964 276.248 223.658C285.427 219.926 292.333 209.543 292.238 209.553C292.219 209.496 284.951 207.857 276.409 211.959C270.245 214.915 264.766 219.793 262.055 222.237C266.935 215.966 271.273 209.316 275.049 202.391C276.495 202.713 282.992 204.078 290.24 199.493C298.592 194.273 303.614 182.905 303.529 182.924C303.5 182.868 296.052 182.508 288.357 187.992C282.802 191.943 278.283 197.655 276.057 200.516C279.577 193.828 282.573 186.894 285.046 179.77C286.53 179.846 293.16 180.12 299.553 174.408Z" fill="#372E6D"/>
<path d="M103.598 110.55C91.8984 110.55 85.6484 103.35 85.6484 92.35V91.95C85.6484 81.1 93.2484 73.7 103.398 73.7C111.998 73.7 118.398 77.9 119.248 86.7H110.948C110.348 82.4 107.948 80.1 103.448 80.1C97.7984 80.1 94.1984 84.5 94.1984 91.9V92.3C94.1984 99.7 97.5984 104 103.498 104C107.948 104 111.048 101.75 111.698 97.15H119.648C118.748 106 112.398 110.55 103.598 110.55ZM124.901 110V74.25H134.301L147.901 97.8V74.25H155.101V110H147.001L132.101 84.55V110H124.901ZM162.791 110V74.25H176.841C184.641 74.25 188.691 77.45 188.691 83.55V83.75C188.691 87.5 186.891 90.25 182.891 91.4C187.541 92.35 190.041 95 190.041 99.8V100C190.041 106.55 185.741 110 177.491 110H162.791ZM170.691 88.95H175.541C179.441 88.95 180.991 87.55 180.991 84.35V84.15C180.991 81.15 179.291 79.8 175.491 79.8H170.691V88.95ZM170.691 104.4H176.241C180.241 104.4 182.041 102.6 182.041 99.35V99.15C182.041 95.85 180.241 94.15 175.841 94.15H170.691V104.4ZM211.899 110.55C200.199 110.55 193.949 103.35 193.949 92.35V91.95C193.949 81.1 201.549 73.7 211.699 73.7C220.299 73.7 226.699 77.9 227.549 86.7H219.249C218.649 82.4 216.249 80.1 211.749 80.1C206.099 80.1 202.499 84.5 202.499 91.9V92.3C202.499 99.7 205.899 104 211.799 104C216.249 104 219.349 101.75 219.999 97.15H227.949C227.049 106 220.699 110.55 211.899 110.55Z" fill="#1CC283"/>
<path d="M64.8844 138.999L61.1644 124.699H62.9444L65.8444 136.239L69.2044 124.699H70.4444L73.8044 136.279L76.7444 124.699H78.3644L74.6444 138.999H73.0444L69.8044 127.699L66.4644 138.999H64.8844ZM84.2583 139.179C81.2783 139.179 79.1383 136.919 79.1383 133.859V133.699C79.1383 130.559 81.3183 128.359 84.2783 128.359C87.2383 128.359 89.4183 130.539 89.4183 133.679V133.839C89.4183 136.999 87.2383 139.179 84.2583 139.179ZM84.2783 137.799C86.3783 137.799 87.6983 136.219 87.6983 133.859V133.719C87.6983 131.299 86.3583 129.739 84.2783 129.739C82.1783 129.739 80.8583 131.299 80.8583 133.699V133.859C80.8583 136.239 82.1583 137.799 84.2783 137.799ZM91.9886 138.999V128.539H93.6486V130.419C94.3086 129.239 95.2086 128.419 97.0886 128.359V129.919C94.9886 130.019 93.6486 130.679 93.6486 133.259V138.999H91.9886ZM99.5481 138.999V123.539H101.228V138.999H99.5481ZM108.565 139.179C105.825 139.179 103.845 137.239 103.845 133.979V133.819C103.845 130.619 105.845 128.359 108.725 128.359C110.465 128.359 111.545 129.199 112.145 130.219V123.539H113.805V138.999H112.145V137.199C111.545 138.219 110.085 139.179 108.565 139.179ZM108.745 137.799C110.685 137.799 112.205 136.519 112.205 133.839V133.679C112.205 130.999 110.925 129.739 108.885 129.739C106.805 129.739 105.565 131.199 105.565 133.739V133.899C105.565 136.539 106.985 137.799 108.745 137.799ZM117.444 129.239L116.424 128.719L118.204 124.479L119.784 125.199L117.444 129.239ZM123.705 139.179C121.205 139.179 119.705 137.919 119.605 135.779H121.225C121.345 137.019 122.005 137.799 123.685 137.799C125.265 137.799 125.965 137.259 125.965 136.139C125.965 135.039 125.145 134.679 123.525 134.379C120.805 133.879 119.885 133.119 119.885 131.299C119.885 129.359 121.785 128.359 123.425 128.359C125.305 128.359 126.925 129.119 127.205 131.379H125.605C125.365 130.239 124.725 129.739 123.405 129.739C122.205 129.739 121.425 130.339 121.425 131.239C121.425 132.179 121.945 132.559 123.865 132.899C126.025 133.299 127.545 133.779 127.545 135.999C127.545 137.899 126.245 139.179 123.705 139.179ZM138.428 138.999V126.119H134.268V124.699H144.328V126.119H140.168V138.999H138.428ZM149.415 139.179C146.435 139.179 144.295 136.919 144.295 133.859V133.699C144.295 130.559 146.475 128.359 149.435 128.359C152.395 128.359 154.575 130.539 154.575 133.679V133.839C154.575 136.999 152.395 139.179 149.415 139.179ZM149.435 137.799C151.535 137.799 152.855 136.219 152.855 133.859V133.719C152.855 131.299 151.515 129.739 149.435 129.739C147.335 129.739 146.015 131.299 146.015 133.699V133.859C146.015 136.239 147.315 137.799 149.435 137.799ZM157.145 142.639V128.539H158.805V130.299C159.405 129.279 160.825 128.359 162.345 128.359C165.085 128.359 167.105 130.359 167.105 133.619V133.779C167.105 136.979 165.225 139.179 162.345 139.179C160.625 139.179 159.405 138.319 158.805 137.279V142.639H157.145ZM162.185 137.799C164.265 137.799 165.385 136.399 165.385 133.859V133.699C165.385 131.059 163.925 129.739 162.165 129.739C160.225 129.739 158.745 131.019 158.745 133.699V133.859C158.745 136.539 160.145 137.799 162.185 137.799ZM175.097 138.999V124.699H183.457V126.119H176.837V131.179H181.997V132.599H176.837V138.999H175.097ZM186.54 126.359C185.94 126.359 185.44 125.859 185.44 125.259C185.44 124.659 185.94 124.159 186.54 124.159C187.14 124.159 187.64 124.659 187.64 125.259C187.64 125.859 187.14 126.359 186.54 126.359ZM185.74 138.999V128.539H187.4V138.999H185.74ZM190.797 138.999V128.539H192.457V130.199C192.937 129.219 194.097 128.359 195.817 128.359C197.977 128.359 199.497 129.539 199.497 132.579V138.999H197.837V132.459C197.837 130.619 197.057 129.799 195.377 129.799C193.837 129.799 192.457 130.779 192.457 132.659V138.999H190.797ZM205.93 139.139C204.03 139.139 203.11 138.019 203.11 136.379V129.939H201.61V128.539H203.11V126.159H204.77V128.539H207.21V129.939H204.77V136.219C204.77 137.239 205.23 137.739 206.07 137.739C206.59 137.739 206.99 137.659 207.35 137.519V138.919C207.01 139.039 206.61 139.139 205.93 139.139ZM214.14 139.179C211.18 139.179 209.08 137.099 209.08 133.879V133.719C209.08 130.559 211.1 128.359 213.98 128.359C216.4 128.359 218.68 129.819 218.68 133.559V134.099H210.8C210.88 136.479 212.02 137.799 214.16 137.799C215.78 137.799 216.72 137.199 216.94 135.979H218.6C218.24 138.079 216.5 139.179 214.14 139.179ZM210.86 132.759H216.98C216.82 130.599 215.7 129.739 213.98 129.739C212.28 129.739 211.14 130.899 210.86 132.759ZM225.567 139.179C222.647 139.179 220.447 137.119 220.447 133.879V133.719C220.447 130.519 222.727 128.359 225.527 128.359C227.707 128.359 229.747 129.359 230.067 132.019H228.427C228.167 130.359 226.967 129.739 225.527 129.739C223.627 129.739 222.167 131.259 222.167 133.719V133.879C222.167 136.439 223.567 137.799 225.587 137.799C227.067 137.799 228.407 136.939 228.587 135.239H230.127C229.907 137.499 228.087 139.179 225.567 139.179ZM232.633 138.999V123.539H234.293V130.199C234.773 129.219 235.933 128.359 237.653 128.359C239.813 128.359 241.333 129.539 241.333 132.579V138.999H239.673V132.459C239.673 130.619 238.893 129.799 237.213 129.799C235.673 129.799 234.293 130.779 234.293 132.659V138.999H232.633ZM247.826 139.179C245.326 139.179 243.826 137.919 243.726 135.779H245.346C245.466 137.019 246.126 137.799 247.806 137.799C249.386 137.799 250.086 137.259 250.086 136.139C250.086 135.039 249.266 134.679 247.646 134.379C244.926 133.879 244.006 133.119 244.006 131.299C244.006 129.359 245.906 128.359 247.546 128.359C249.426 128.359 251.046 129.119 251.326 131.379H249.726C249.486 130.239 248.846 129.739 247.526 129.739C246.326 129.739 245.546 130.339 245.546 131.239C245.546 132.179 246.066 132.559 247.986 132.899C250.146 133.299 251.666 133.779 251.666 135.999C251.666 137.899 250.366 139.179 247.826 139.179Z" fill="white"/>
<path d="M109.275 195.24V193.224H119.859V195.24H109.275ZM123.377 201V200.424L129.857 193.584C131.489 191.856 132.473 190.344 132.473 188.712C132.473 187.104 131.561 186.096 129.905 186.096C128.201 186.096 127.121 187.08 126.833 189.504H123.905C124.121 185.76 126.377 183.6 130.001 183.6C133.553 183.6 135.665 185.64 135.665 188.664C135.665 190.896 134.345 192.84 132.305 194.808L128.489 198.528H135.785V201H123.377ZM147.599 201.24C143.231 201.24 140.399 198.024 140.399 192.864V192C140.399 186.792 143.279 183.6 147.599 183.6C151.943 183.6 154.775 186.768 154.775 191.928V192.792C154.775 197.952 152.087 201.24 147.599 201.24ZM147.671 198.696C150.311 198.696 151.583 196.68 151.583 192.792V191.952C151.583 188.304 150.191 186.096 147.623 186.096C145.031 186.096 143.615 188.16 143.615 191.976V192.84C143.615 196.728 145.103 198.696 147.671 198.696ZM158.763 201V200.424L165.243 193.584C166.875 191.856 167.859 190.344 167.859 188.712C167.859 187.104 166.947 186.096 165.291 186.096C163.587 186.096 162.507 187.08 162.219 189.504H159.291C159.507 185.76 161.763 183.6 165.387 183.6C168.939 183.6 171.051 185.64 171.051 188.664C171.051 190.896 169.731 192.84 167.691 194.808L163.875 198.528H171.171V201H158.763ZM181.974 201.24C177.894 201.24 175.662 198.984 175.518 195.696H178.422C178.59 197.496 179.598 198.84 181.902 198.84C184.134 198.84 185.166 197.76 185.166 196.056C185.166 194.184 184.158 193.248 182.07 193.248H180.75V190.968H181.974C183.942 190.968 184.83 190.056 184.83 188.448C184.83 187.056 183.942 186.024 182.166 186.024C180.342 186.024 179.166 187.128 178.974 188.856H176.142C176.31 185.88 178.542 183.6 182.214 183.6C185.79 183.6 187.878 185.664 187.878 188.208C187.878 190.152 186.75 191.328 185.094 191.952C187.086 192.408 188.406 193.824 188.406 196.104C188.406 199.272 185.91 201.24 181.974 201.24ZM193.111 195.24V193.224H203.695V195.24H193.111Z" fill="#1CC283"/>
</svg>
