<?xml version="1.0" encoding="utf-8"?><svg xmlns="http://www.w3.org/2000/svg" xmlns:xlink="http://www.w3.org/1999/xlink"><symbol viewBox="0 0 5 9" id="arrow-right" xmlns="http://www.w3.org/2000/svg"><path d="M1 1l2.843 3.19c.208.172.21.39.005.564L1.009 8" stroke="#FFF" stroke-linecap="round" stroke-width="2" fill="none" fill-rule="evenodd"/></symbol><symbol viewBox="0 0 2120 354" id="background-white-1440" xmlns="http://www.w3.org/2000/svg"><defs><filter x="-3.5%" y="-26.9%" width="107.1%" height="145.5%" filterUnits="objectBoundingBox" id="ba"><feOffset dy="-15" in="SourceAlpha" result="shadowOffsetOuter1"/><feGaussianBlur stdDeviation="22.5" in="shadowOffsetOuter1" result="shadowBlurOuter1"/><feColorMatrix values="0 0 0 0 0.0824864865 0 0 0 0 0.076 0 0 0 0 0.124 0 0 0 0.02 0" in="shadowBlurOuter1"/></filter><path d="M219 192.265L0 272.89V354h2120V202.903l-261-31.661L695.435 35.145a150 150 0 00-68.942 8.108L219 192.265z" id="bb"/></defs><g fill="none" fill-rule="evenodd"><use fill="#000" filter="url(#ba)" xlink:href="#bb"/><use fill="#FFF" xlink:href="#bb"/></g></symbol><symbol viewBox="0 0 36 36" id="circle-arrow-right" xmlns="http://www.w3.org/2000/svg"><g fill-rule="evenodd"><path d="M18 0c9.941 0 18 8.059 18 18s-8.059 18-18 18S0 27.941 0 18 8.059 0 18 0z"/><path d="M17 15l2.843 3.19c.208.172.21.39.005.564L17.009 22" stroke="#FFF" stroke-width="2" stroke-linecap="round"/></g></symbol><symbol viewBox="0 0 60 60" id="icon-3d-secure" xmlns="http://www.w3.org/2000/svg"><defs><path id="da" d="M0 0h60v60H0z"/></defs><g fill="none" fill-rule="evenodd"><mask id="db" fill="#fff"><use xlink:href="#da"/></mask><use fill-opacity="0" fill="#D8D8D8" xlink:href="#da"/><path d="M41.8 19.864L30 15.138l-11.8 4.726v9.883c-.01 5.143 2.704 9.902 7.12 12.476l4.682 2.702 4.679-2.727c4.407-2.569 7.12-7.316 7.119-12.451v-9.883zm-11.801-3.003L40.2 20.947v8.8l-.004.334c-.113 4.438-2.502 8.509-6.321 10.735l-3.878 2.259-3.875-2.236-.284-.17c-3.75-2.32-6.048-6.456-6.038-10.92v-8.802l10.199-4.086z" fill="#2E0083" fill-rule="nonzero" mask="url(#db)"/><g mask="url(#db)" fill="#2E0083" fill-rule="nonzero"><path d="M37 50c1.598 0 2.904 1.145 2.995 2.588l.005.162v2.5c0 1.519-1.343 2.75-3 2.75-1.598 0-2.904-1.145-2.995-2.588L34 55.25v-2.5c0-1.519 1.343-2.75 3-2.75zm-13.7 0a.8.8 0 01.794.7l.006.1v6.4a.8.8 0 01-1.594.1l-.006-.1v-6.4a.8.8 0 01.8-.8zM37 51.333c-.803 0-1.463.562-1.538 1.28l-.007.137v2.5c0 .782.691 1.417 1.545 1.417.803 0 1.463-.562 1.538-1.28l.007-.137v-2.5c0-.782-.691-1.417-1.545-1.417zM23 2c1.598 0 2.904 1.145 2.995 2.588L26 4.75v2.5C26 8.769 24.657 10 23 10c-1.598 0-2.904-1.145-2.995-2.588L20 7.25v-2.5C20 3.231 21.343 2 23 2zm14 0c1.598 0 2.904 1.145 2.995 2.588L40 4.75v2.5C40 8.769 38.657 10 37 10c-1.598 0-2.904-1.145-2.995-2.588L34 7.25v-2.5C34 3.231 35.343 2 37 2zM23 3.333c-.803 0-1.463.562-1.538 1.28l-.007.137v2.5c0 .782.691 1.417 1.545 1.417.803 0 1.463-.562 1.538-1.28l.007-.137v-2.5c0-.782-.691-1.417-1.545-1.417zm14 0c-.803 0-1.463.562-1.538 1.28l-.007.137v2.5c0 .782.691 1.417 1.545 1.417.803 0 1.463-.562 1.538-1.28l.007-.137v-2.5c0-.782-.691-1.417-1.545-1.417zM51.1 50a.8.8 0 01.794.7l.006.1v6.4a.8.8 0 01-1.594.1l-.006-.1v-6.4a.8.8 0 01.8-.8zM9 50c1.598 0 2.904 1.145 2.995 2.588l.005.162v2.5C12 56.769 10.657 58 9 58c-1.598 0-2.904-1.145-2.995-2.588L6 55.25v-2.5C6 51.231 7.343 50 9 50zm0 1.333c-.803 0-1.463.562-1.538 1.28l-.007.137v2.5c0 .782.691 1.417 1.545 1.417.803 0 1.463-.562 1.538-1.28l.007-.137v-2.5c0-.782-.691-1.417-1.545-1.417zM51 38c1.598 0 2.904 1.145 2.995 2.588l.005.162v2.5c0 1.519-1.343 2.75-3 2.75-1.598 0-2.904-1.145-2.995-2.588L48 43.25v-2.5c0-1.519 1.343-2.75 3-2.75zM9.1 38a.8.8 0 01.794.7l.006.1v6.4a.8.8 0 01-1.594.1l-.006-.1v-6.4a.8.8 0 01.8-.8zM51 39.333c-.803 0-1.463.562-1.538 1.28l-.007.137v2.5c0 .782.691 1.417 1.545 1.417.803 0 1.463-.562 1.538-1.28l.007-.137v-2.5c0-.782-.691-1.417-1.545-1.417zM51.1 26a.8.8 0 01.794.7l.006.1v6.4a.8.8 0 01-1.594.1l-.006-.1v-6.4a.8.8 0 01.8-.8zM9 26c1.598 0 2.904 1.145 2.995 2.588l.005.162v2.5C12 32.769 10.657 34 9 34c-1.598 0-2.904-1.145-2.995-2.588L6 31.25v-2.5C6 27.231 7.343 26 9 26zm0 1.333c-.803 0-1.463.562-1.538 1.28l-.007.137v2.5c0 .782.691 1.417 1.545 1.417.803 0 1.463-.562 1.538-1.28l.007-.137v-2.5c0-.782-.691-1.417-1.545-1.417zM51 14c1.598 0 2.904 1.145 2.995 2.588l.005.162v2.5c0 1.519-1.343 2.75-3 2.75-1.598 0-2.904-1.145-2.995-2.588L48 19.25v-2.5c0-1.519 1.343-2.75 3-2.75zM9 14c1.598 0 2.904 1.145 2.995 2.588l.005.162v2.5C12 20.769 10.657 22 9 22c-1.598 0-2.904-1.145-2.995-2.588L6 19.25v-2.5C6 15.231 7.343 14 9 14zm42 1.333c-.803 0-1.463.562-1.538 1.28l-.007.137v2.5c0 .782.691 1.417 1.545 1.417.803 0 1.463-.562 1.538-1.28l.007-.137v-2.5c0-.782-.691-1.417-1.545-1.417zm-42 0c-.803 0-1.463.562-1.538 1.28l-.007.137v2.5c0 .782.691 1.417 1.545 1.417.803 0 1.463-.562 1.538-1.28l.007-.137v-2.5c0-.782-.691-1.417-1.545-1.417zM51.1 2a.8.8 0 01.794.7l.006.1v6.4a.8.8 0 01-1.594.1l-.006-.1V2.8a.8.8 0 01.8-.8zm-42 0a.8.8 0 01.794.7l.006.1v6.4a.8.8 0 01-1.594.1L8.3 9.2V2.8a.8.8 0 01.8-.8z"/></g></g></symbol><symbol viewBox="0 0 48 46" id="icon-amount" xmlns="http://www.w3.org/2000/svg"><g fill="none"><path d="M1 11.5v29.273h46V11.5H1zm23 21.955a7.318 7.318 0 110-14.637 7.318 7.318 0 010 14.637h0z" stroke="#2E0083" stroke-width="1.6"/><path fill="#2E0083" d="M1 2.3h46v1.314H1zm0 4.271h46v1.314H1z"/></g></symbol><symbol viewBox="0 0 12 8" id="icon-check" xmlns="http://www.w3.org/2000/svg"><path d="M1 3.158l3.488 3.488L10.134 1" stroke="#FFF" stroke-width="2" fill="none" fill-rule="evenodd" stroke-linecap="round" stroke-linejoin="round"/></symbol><symbol viewBox="0 0 56 56" id="icon-facial-recognition" xmlns="http://www.w3.org/2000/svg"><path d="M5 19v-7a7 7 0 017-7h6M5 37v7a7 7 0 007 7h6M37.5 5.5h7a7 7 0 017 7v6h0m-14 32h7a7 7 0 007-7v-6h0M38 27v-6m-21 6v-6m8 12a4 4 0 004-4v-8h0M19 38c3 2.667 6 4 9 4s6-1.333 9-4" stroke="#2E0083" stroke-width="1.6" fill="none" stroke-linecap="round"/></symbol><symbol viewBox="0 0 48 48" id="icon-location" xmlns="http://www.w3.org/2000/svg"><g stroke="#2E0083" stroke-width="1.6" fill="none"><path d="M18.42 34.861C8.414 35.53 1 37.952 1 40.84 1 44.242 11.297 47 24 47s23-2.758 23-6.16c0-2.894-7.446-5.321-17.484-5.983"/><path d="M24 1c8.166 0 14.786 6.62 14.786 14.786 0 11.122-13.143 23-13.669 23.558l-1.117.97-1.1-.986c-.543-.542-13.686-12.437-13.686-23.542C9.214 7.62 15.834 1 24 1zm0 9.857a4.929 4.929 0 100 9.857 4.929 4.929 0 000-9.857z"/></g></symbol><symbol viewBox="0 0 32 32" id="icon-partners-item" xmlns="http://www.w3.org/2000/svg"><g transform="translate(1 1)" fill="none" fill-rule="evenodd"><path d="M15.588 8.427l5.482 3.983a1 1 0 01.363 1.118l-2.094 6.444a1 1 0 01-.951.691h-6.776a1 1 0 01-.951-.69l-2.094-6.445a1 1 0 01.363-1.118l5.482-3.983a1 1 0 011.176 0z" fill="#D5CCE6"/><circle stroke="#D5CCE6" stroke-width="2" cx="15" cy="15" r="15"/></g></symbol><symbol viewBox="0 0 56 57" id="icon-password" xmlns="http://www.w3.org/2000/svg"><g fill="none" fill-rule="evenodd"><rect stroke="#2E0083" stroke-width="1.6" x="1" y="32" width="54" height="24" rx="5"/><path d="M13 42a2 2 0 110 4 2 2 0 010-4zm10 0a2 2 0 110 4 2 2 0 010-4zm10 0a2 2 0 110 4 2 2 0 010-4zm10 0a2 2 0 110 4 2 2 0 010-4z" fill="#2E0083"/><path d="M16 21a6 6 0 100-12 6 6 0 000 12zm20-3h7m-21-3h24" stroke="#2E0083" stroke-width="1.6"/></g></symbol><symbol viewBox="0 0 68 68" id="icon-play" xmlns="http://www.w3.org/2000/svg"><path class="kst0" d="M34 0C15.2 0 0 15.2 0 34s15.2 34 34 34 34-15.2 34-34S52.8 0 34 0zm0 2c17.7 0 32 14.3 32 32S51.7 66 34 66 2 51.7 2 34 16.3 2 34 2z"/><path class="kst0" d="M30 24.9c-1.7 0-3 1.3-3 3v13.2c0 .6.2 1.2.6 1.8 1 1.3 2.8 1.6 4.2.7l10.3-7.4c1.3-.9 1.3-2.4 0-3.3l-10.3-7.3c-.5-.3-1-.5-1.5-.5l-.3-.2z"/></symbol><symbol viewBox="0 0 96 97" id="icon-play-rotated" xmlns="http://www.w3.org/2000/svg"><g fill="none" fill-rule="evenodd"><g transform="rotate(-3 57.344 -166.99)" stroke="#FFF" stroke-width="2"><circle cx="33" cy="33" r="33"/><path d="M32.165 25.252l10.287 7.319h0c.725.516.731 1.172.016 1.69l-10.269 7.443a2 2 0 01-3.173-1.617l-.02-13.202a2 2 0 013.16-1.633z" fill="#FFF" stroke-linecap="round"/></g><text transform="rotate(-4 34.182 99.818)" font-family="GraphikLC-Medium, Graphik LC" font-size="16" font-weight="400" fill="#FFF"><tspan x="1.384" y="84">Watch video</tspan></text></g></symbol><symbol viewBox="0 0 6 11" id="icon-product-arrow" xmlns="http://www.w3.org/2000/svg"><path d="M1 1.5l3.791 3.646c.276.196.279.446.006.644L1.012 9.5" fill="none"/></symbol><symbol viewBox="0 0 45 46" id="icon-store-type" xmlns="http://www.w3.org/2000/svg"><path d="M22.61.937L.822 13.527V45h43.58V13.526L22.61.936zm20.58 42.852H2.032V14.23L22.611 2.34 43.19 14.228V43.79zm-25.421-23v2.422h-4.842v12.105h19.368V23.21h-4.842v-2.422a4.842 4.842 0 10-9.684 0zm13.316 3.632v9.684H14.137v-9.684h16.948zm-4.843-3.632v2.422H18.98v-2.422a3.632 3.632 0 017.263 0zm-7.868 7.506a.847.847 0 100-1.695.847.847 0 000 1.695zm8.474 0a.847.847 0 100-1.695.847.847 0 000 1.695z" fill="#2E0083"/></symbol><symbol viewBox="0 0 75 26" id="logo-brex" xmlns="http://www.w3.org/2000/svg"><g fill="#7C769F" fill-rule="nonzero"><path d="M8.564 3.37c2.5 0 5.177 1.312 5.177 4.805 0 1.747-.74 2.904-1.99 3.726 1.25.822 1.99 1.978 1.99 3.726 0 3.495-2.678 4.804-5.177 4.804H.606V3.371h7.958zM8.537 5.53H2.902v5.293h5.637c1.734 0 2.908-.9 2.908-2.646-.002-1.747-1.175-2.647-2.91-2.647zm0 7.452H2.902v5.293h5.637c1.734 0 2.908-.9 2.908-2.646-.002-1.747-1.175-2.647-2.91-2.647zM42.155 5.529v5.293h7.363v2.159h-7.363v5.293h9.182v2.159H39.861V3.37h11.476v2.158zM63.45 8.8l-3.866-5.43h-2.628l5.189 7.262zM66.63 13.246l-1.305 1.827 3.822 5.36h2.603zM56.341 25.114H53.74L71.654 0h2.627zM28.819 13.392c2.883-.206 4.872-1.953 4.872-5.01 0-3.212-2.219-5.01-5.408-5.01h-8.238V5.53h8.238c1.836 0 3.112 1.002 3.112 2.852 0 1.85-1.276 2.851-3.112 2.851h-8.238v9.2h2.296v-7.041h3.62l5.331 7.04h2.857l-5.33-7.04z"/></g></symbol><symbol viewBox="0 0 149 18" id="logo-doordash" xmlns="http://www.w3.org/2000/svg"><g fill="#7C769F" fill-rule="nonzero"><path d="M28.93 4.568A7.475 7.475 0 0022.304.6H1.32a.723.723 0 00-.507 1.234l4.57 4.603a2.15 2.15 0 001.526.634h14.793a1.909 1.909 0 011.927 1.89 1.909 1.909 0 01-1.888 1.93H11.542a.723.723 0 00-.51 1.234l4.574 4.605c.404.407.953.636 1.526.635h4.612c6.001 0 10.54-6.424 7.186-12.8M43.735 5.244v7.332h1.872a3.615 3.615 0 002.547-1.095 3.623 3.623 0 001.025-2.577 3.561 3.561 0 00-1.01-2.588 3.553 3.553 0 00-2.562-1.072h-1.872zm1.872-2.298c3.49 0 6.129 2.64 6.129 5.958 0 3.319-2.64 5.973-6.13 5.973h-4.128a.296.296 0 01-.297-.297V3.254c0-.163.133-.296.297-.296l4.129-.012zM60.732 12.83a3.916 3.916 0 003.625-2.41 3.924 3.924 0 00-.838-4.276 3.913 3.913 0 00-4.267-.86 3.92 3.92 0 001.48 7.547m0-10.155c3.673 0 6.48 2.826 6.48 6.228 0 3.402-2.807 6.228-6.48 6.228-3.673 0-6.458-2.812-6.458-6.228 0-3.417 2.808-6.228 6.458-6.228M76.135 12.83a3.918 3.918 0 003.907-3.924 3.918 3.918 0 00-3.915-3.917 3.918 3.918 0 00-2.767 6.693 3.92 3.92 0 002.775 1.149m0-10.155c3.661 0 6.47 2.811 6.47 6.228 0 3.416-2.82 6.228-6.47 6.228s-6.481-2.812-6.481-6.228c0-3.417 2.808-6.228 6.48-6.228M91.168 5.244h-2.64V8.4h2.64a1.545 1.545 0 001.617-1.533 1.567 1.567 0 00-1.617-1.62m-5.193-1.993c0-.163.133-.296.296-.296h4.97c2.37 0 4.086 1.738 4.086 3.92a3.856 3.856 0 01-2.127 3.494l2.292 4.057a.297.297 0 01-.27.463h-2.01a.296.296 0 01-.27-.16l-2.21-4.016H88.52v3.855a.296.296 0 01-.297.297h-1.937a.296.296 0 01-.296-.297l-.015-11.317zM101.983 5.3v7.332h1.872a3.615 3.615 0 002.546-1.091 3.623 3.623 0 001.029-2.575 3.561 3.561 0 00-1.01-2.593 3.553 3.553 0 00-2.565-1.072h-1.872zm1.872-2.3c3.489 0 6.128 2.642 6.128 5.966 0 3.325-2.639 5.967-6.128 5.967h-4.118a.296.296 0 01-.296-.296V3.31c0-.164.133-.297.296-.297L103.855 3zM117.77 5.915l-1.448 3.92h2.894l-1.445-3.92zm-2.298 6.136l-.948 2.61a.296.296 0 01-.296.204h-2.056a.296.296 0 01-.296-.421L116.32 3.13a.296.296 0 01.297-.196h2.301a.296.296 0 01.296.196l4.444 11.314a.297.297 0 01-.297.421h-2.055a.296.296 0 01-.297-.205l-.947-2.61h-4.589zM126.041 6.17c0-1.875 1.617-3.494 4.17-3.494a5.28 5.28 0 013.706 1.397.297.297 0 010 .436l-1.14 1.133a.296.296 0 01-.42 0 2.996 2.996 0 00-1.976-.78c-1.022 0-1.778.593-1.778 1.278 0 2.215 6.037.937 6.037 5.199-.003 2.159-1.632 3.793-4.514 3.793a6.042 6.042 0 01-4.307-1.732.297.297 0 010-.436l1.102-1.103a.296.296 0 01.43 0 3.804 3.804 0 002.603 1.062c1.277 0 2.118-.683 2.118-1.537 0-2.215-6.034-.937-6.034-5.199M145.588 3.24v4.478h-5.11V3.239a.296.296 0 00-.296-.296h-1.937a.296.296 0 00-.296.296v11.315c0 .163.133.296.296.296h1.937a.296.296 0 00.297-.296v-4.55h5.106v4.55c0 .163.133.296.297.296h1.937a.296.296 0 00.296-.296V3.239a.296.296 0 00-.296-.296h-1.937a.296.296 0 00-.294.296z"/></g></symbol><symbol viewBox="0 0 122 25" id="logo-instacart" xmlns="http://www.w3.org/2000/svg"><g fill="#7C769F" fill-rule="nonzero"><path d="M15.061 9.9c1.428 1.436 2.595 3.789 1.927 5.186-1.787 3.737-15.122 10.29-16.254 9.156-1.132-1.134 5.42-14.488 9.151-16.277 1.397-.67 3.746.5 5.18 1.93l-.004.005zM22.126 8.323c-.233-.86-.824-1.728-1.708-1.831-1.62-.189-4.174 2.68-3.992 3.36.183.68 3.79 1.88 5.138.908.698-.5.792-1.58.564-2.44l-.002.003zM17.11.378c1.204.327 2.42 1.157 2.564 2.397.264 2.274-3.752 5.858-4.705 5.604-.953-.256-2.634-5.322-1.275-7.214.697-.979 2.212-1.112 3.42-.792v.005h-.004zM52.992 13.838l-1.193-.18c-1.136-.167-1.794-.536-1.794-1.207 0-.769.857-1.248 2.122-1.248.895 0 1.624.337 2.322.693l.14.07a1.134 1.134 0 001.508-.465l.098-.176a1.166 1.166 0 00-.456-1.583l-.04-.021c-1.016-.51-2.118-.967-3.57-.967-3.036 0-4.991 1.467-4.991 3.829 0 1.94 1.392 3.153 4.025 3.514l1.203.157c1.272.179 1.89.555 1.89 1.151 0 .551-.297 1.285-2.267 1.285-1.085 0-2.188-.277-3.083-.844a1.105 1.105 0 00-.595-.173 1.151 1.151 0 00-.974.545l-.07.108c-.167.272-.217.599-.14.91.078.302.276.56.55.712 1.56.879 3.362 1.19 4.31 1.19 3.165 0 5.124-1.39 5.124-3.832 0-1.953-1.388-3.075-4.12-3.468zM89.874 18.207l-.088-.101a1.212 1.212 0 00-1.554-.21 3.826 3.826 0 01-2.04.627c-1.902 0-3.283-1.504-3.283-3.575s1.38-3.575 3.282-3.575a3.504 3.504 0 011.996.608 1.235 1.235 0 001.548-.183l.101-.108c.267-.284.395-.674.35-1.063a1.3 1.3 0 00-.572-.935c-.934-.62-2.095-.948-3.351-.948-3.649 0-6.197 2.551-6.197 6.204 0 3.654 2.548 6.204 6.197 6.204 1.262 0 2.428-.334 3.37-.968a1.322 1.322 0 00.241-1.977zM30.73 4.544a1.688 1.688 0 00-1.695 1.681v.037c0 .967.729 1.695 1.694 1.695a1.706 1.706 0 000-3.413zM31.242 8.842H30.24a.887.887 0 00-.886.888v10.232c0 .49.397.888.886.888h.999c.49 0 .886-.398.886-.888V9.73a.887.887 0 00-.883-.887zM64.053 11.428c.489 0 .886-.397.886-.888v-.81a.887.887 0 00-.886-.888H61.62V6.18a.887.887 0 00-.887-.887H59.68a.887.887 0 00-.885.887v9.699c0 2.792 2.117 5.26 5.048 5.26a1.102 1.102 0 001.096-1.1v-.683a.892.892 0 00-.894-.887c-1.121-.005-2.424-.885-2.424-2.425V11.43h2.432v-.002zM39.833 8.742c-3.547 0-5.525 2.84-5.525 5.27v5.95c0 .49.397.887.887.887h1.01c.49 0 .887-.397.887-.887v-5.503c0-1.842 1.117-3.063 2.74-3.063 1.625 0 2.742 1.22 2.742 3.063v5.503c0 .49.397.887.886.887h1.011c.49 0 .887-.397.887-.887v-5.95c0-2.43-1.978-5.27-5.525-5.27zM113.308 9.229a.804.804 0 00-.516-.363c-.385-.084-1.349-.124-1.848-.124h-.133c-2.746 0-5.282 2.242-5.282 5.331v5.887c0 .49.398.888.887.888h1.011c.49 0 .887-.398.887-.888v-5.784c0-1.682 1.198-2.778 2.668-2.778.283.005.562.035.838.09a1.21 1.21 0 001.412-.909c.07-.3.124-.522.174-.727a.818.818 0 00-.098-.623zM120.204 11.428c.49 0 .887-.397.887-.888v-.81a.887.887 0 00-.887-.888h-2.433V6.18a.887.887 0 00-.886-.887h-1.051a.887.887 0 00-.887.887v9.699c0 2.792 2.115 5.26 5.047 5.26a1.1 1.1 0 001.098-1.1v-.683a.89.89 0 00-.895-.887c-1.12-.005-2.424-.885-2.424-2.425V11.43h2.433l-.002-.002zM103.628 14.946c0-2.318-1.028-4.193-2.711-5.252h-.005c-.935-.62-2.094-.95-3.351-.95h-.13c-1.257 0-2.417.33-3.351.95h-.004c-1.684 1.06-2.712 2.936-2.712 5.252 0 2.43 1.128 4.37 2.956 5.399a5.814 5.814 0 002.953.804c1.993 0 3.195-1.128 3.573-1.622v.425c0 .491.397.888.886.888h1.01c.49 0 .887-.397.887-.888v-5.006zm-5.02 3.388a3.6 3.6 0 01-.98.184h-.259a3.618 3.618 0 01-.981-.184c-1.307-.462-2.175-1.747-2.175-3.388 0-1.938 1.21-3.38 2.924-3.556h.028l.117-.01h.445c.04 0 .078.006.118.01h.027c1.715.176 2.924 1.618 2.924 3.556-.012 1.642-.88 2.926-2.188 3.387v.001zM78.404 14.946c0-2.318-1.028-4.193-2.712-5.252h-.005c-.935-.62-2.093-.95-3.35-.95h-.131c-1.256 0-2.417.33-3.351.95h-.004c-1.683 1.06-2.71 2.936-2.71 5.252 0 2.43 1.126 4.37 2.954 5.399a5.809 5.809 0 002.954.804c1.992 0 3.195-1.128 3.572-1.622v.425c0 .491.397.888.886.888h1.011c.49 0 .887-.397.887-.888v-5.006zm-5.018 3.388a3.614 3.614 0 01-.981.183h-.259a3.62 3.62 0 01-.981-.183c-1.307-.461-2.175-1.748-2.175-3.388 0-1.939 1.21-3.38 2.923-3.556h.028l.117-.01h.447c.037 0 .077.005.116.01h.028c1.714.176 2.924 1.617 2.924 3.556-.013 1.642-.882 2.926-2.187 3.388z"/></g></symbol><symbol viewBox="0 0 94 25" id="logo-square" xmlns="http://www.w3.org/2000/svg"><g fill="#7C769F" fill-rule="evenodd"><path d="M4.04.84h15.642c1.042 0 2.04.414 2.777 1.15a3.932 3.932 0 011.15 2.78V20.43a3.93 3.93 0 01-3.927 3.931H4.04a3.929 3.929 0 01-3.926-3.931V4.77C.114 2.6 1.872.84 4.04.84zM18.1 20.084a1.24 1.24 0 001.24-1.24l-.004-12.487a1.24 1.24 0 00-1.239-1.24H5.627a1.238 1.238 0 00-1.24 1.242v12.485c0 .685.555 1.24 1.24 1.24H18.1z"/><path d="M9.369 15.789a.712.712 0 01-.706-.712v-4.985a.712.712 0 01.712-.715h4.985a.712.712 0 01.712.715v4.984a.713.713 0 01-.712.715L9.37 15.79zM35.564 11.552c-.727-.199-1.415-.386-1.95-.624-.99-.443-1.45-1.057-1.45-1.931 0-1.653 1.596-2.397 3.185-2.397 1.51 0 2.83.626 3.715 1.76l.06.078 1.277-1-.062-.078c-1.177-1.499-2.921-2.32-4.913-2.32-1.325 0-2.54.358-3.42 1.01-.989.724-1.51 1.775-1.51 3.029 0 2.916 2.742 3.627 4.946 4.198 2.231.59 3.598 1.036 3.598 2.739 0 1.676-1.354 2.76-3.45 2.76-1.035 0-2.954-.276-4.16-2.12l-.056-.087-1.343.974.053.079c1.14 1.727 3.107 2.719 5.404 2.719 3.12 0 5.217-1.763 5.217-4.385 0-3.002-2.852-3.779-5.14-4.404z" fill-rule="nonzero"/><path d="M50.882 10.946V9.368h1.501v14.99h-1.5V18.5c-.858 1.177-2.144 1.82-3.655 1.82-2.855 0-4.85-2.287-4.85-5.591 0-3.304 2-5.61 4.85-5.61 1.5 0 2.787.647 3.654 1.826zm-6.921 3.766c0 3.058 1.75 4.148 3.387 4.148h.004c2.144 0 3.53-1.642 3.53-4.148s-1.388-4.127-3.534-4.127c-2.497 0-3.387 2.132-3.387 4.127z"/><path d="M62.308 9.368v5.916c0 2.072-1.417 3.576-3.368 3.576-1.621 0-2.41-.963-2.41-2.943v-6.55H55.03v6.857c0 2.567 1.394 4.1 3.728 4.1 1.455 0 2.704-.618 3.552-1.746v1.502h1.502V9.368h-1.503z" fill-rule="nonzero"/><path d="M66.638 10.493c1.106-.87 2.609-1.37 4.12-1.37 2.385 0 3.809 1.188 3.804 3.18v7.779H73.06v-1.188c-.758.95-1.855 1.432-3.266 1.432-2.3 0-3.729-1.259-3.729-3.283 0-2.633 2.478-3.046 3.534-3.221.172-.029.35-.056.528-.084h.006c1.442-.223 2.931-.452 2.931-1.677 0-1.387-1.797-1.494-2.348-1.494-.972 0-2.346.289-3.28 1.099l-.085.074-.784-1.191.07-.056zm.995 6.466c0 1.716 1.614 1.902 2.308 1.902h.001c1.51 0 3.125-.806 3.121-3.07v-1.55c-.732.464-1.774.644-2.704.806l-.016.003-.466.083c-1.489.276-2.244.632-2.244 1.826z"/><path d="M83.26 9.57c-.357-.255-.92-.407-1.505-.407a3.833 3.833 0 00-3.043 1.57v-1.37h-1.5v10.71h1.5v-5.728c0-2.54 1.426-3.678 2.839-3.678.413-.005.822.082 1.198.255l.101.054.475-1.363-.066-.043z" fill-rule="nonzero"/><path d="M83.7 14.753c0-3.314 2.064-5.63 5.015-5.63 2.843 0 4.83 2.056 4.824 5.003-.001.256-.015.512-.042.767l-.01.088H85.28c.038 2.359 1.456 3.88 3.632 3.88 1.247 0 2.328-.508 3.042-1.431l.065-.085 1.088.97-.06.073c-.723.882-2.041 1.935-4.218 1.935-3.067 0-5.13-2.238-5.13-5.57zm4.974-4.187c-1.834 0-3.135 1.208-3.338 3.09h6.616c-.13-1.513-1.053-3.09-3.278-3.09z"/></g></symbol><symbol viewBox="0 0 64 23" id="logo-uber" xmlns="http://www.w3.org/2000/svg"><path d="M3.353 13.926c0 3.399 2.21 5.595 5.135 5.595 2.896 0 5.135-2.256 5.135-5.595V.93h3.134v21.056h-3.104v-1.955c-1.403 1.474-3.344 2.316-5.523 2.316-4.478 0-7.911-3.279-7.911-8.242V.931h3.134v12.995zm16.48 8.061V.931h3.014V8.6a7.5 7.5 0 015.404-2.286c4.477 0 8 3.58 8 8.032a7.962 7.962 0 01-8 8.001c-2.12 0-4.06-.872-5.434-2.286v1.925h-2.985zm2.955-7.64c0 2.948 2.328 5.324 5.254 5.324 2.865 0 5.224-2.376 5.224-5.324 0-2.978-2.359-5.325-5.224-5.325-2.896 0-5.254 2.347-5.254 5.325zm15.254-.03c0-4.332 3.374-7.972 7.822-7.972 4.388 0 7.612 3.4 7.612 7.972v.992H41.087c.418 2.497 2.478 4.362 5.045 4.362 1.762 0 3.254-.722 4.389-2.256l2.179 1.624c-1.523 2.046-3.791 3.28-6.568 3.28-4.567 0-8.09-3.43-8.09-8.002zm7.762-5.325c-2.239 0-4.12 1.565-4.657 3.91h9.284c-.507-2.345-2.388-3.91-4.627-3.91zm17.703.361h-1.254c-1.97 0-3.403 1.534-3.403 3.91v8.724h-3.016V6.646h2.986v1.895c.746-1.233 1.97-2.015 3.642-2.015h1.045v2.827z" fill="#7C769F" fill-rule="nonzero"/></symbol><symbol viewBox="0 0 320 63" id="mobile-purple-triangle" xmlns="http://www.w3.org/2000/svg"><path d="M0 35L232.661 6.394a46 46 0 0122.013 2.679L320 34v3592H0V35z" fill="#2A206A" fill-rule="evenodd"/></symbol></svg>