<?xml version="1.0" encoding="UTF-8"?>
<svg width="149px" height="18px" viewBox="0 0 149 18" version="1.1" xmlns="http://www.w3.org/2000/svg" xmlns:xlink="http://www.w3.org/1999/xlink">
    <!-- Generator: Sketch 64 (93537) - https://sketch.com -->
    <title>Group 5</title>
    <desc>Created with Sketch.</desc>
    <g id="Breakpoints" stroke="none" stroke-width="1" fill="none" fill-rule="evenodd">
        <g id="01-00-01-Home-1440" transform="translate(-730.000000, -735.000000)" fill="#7C769F" fill-rule="nonzero">
            <g id="Hero">
                <g id="Logo" transform="translate(181.000000, 732.000000)">
                    <g id="Group-5" transform="translate(549.600022, 3.600000)">
                        <g id="Group">
                            <path d="M28.3299914,3.96811879 C27.0270742,1.51749671 24.4765031,-0.00989085576 21.7036645,-4.77488186e-05 L0.719802166,-4.77488186e-05 C0.428990368,0.00245567096 0.167975022,0.179181736 0.0574071738,0.448488805 C-0.0531606742,0.717795873 0.00825860129,1.02722047 0.213274716,1.23373499 L4.78387036,5.83651552 C5.18769919,6.24297414 5.73676033,6.47140193 6.30937701,6.47117727 L21.1023483,6.47117727 C22.1558998,6.46053082 23.0185924,7.30699898 23.0292261,8.36181683 C23.0398598,9.41663468 22.1944078,10.2803642 21.1408562,10.2910106 L10.9421778,10.2910106 C10.6508279,10.2922828 10.3887283,10.4685738 10.2774054,10.7381437 C10.1660824,11.0077136 10.2273057,11.3178468 10.4326882,11.5247456 L15.006246,16.1304918 C15.4098881,16.537229 15.9590705,16.7657073 16.5317526,16.7651546 L21.1438184,16.7651546 C27.1451319,16.7651546 31.6831439,10.3414277 28.3299914,3.96515308" id="Path"></path>
                        </g>
                        <g id="Group" transform="translate(40.581439, 1.779425)">
                            <path d="M2.55337229,2.86482299 L2.55337229,10.1961079 L4.42545036,10.1961079 C5.38574425,10.1843898 6.30195624,9.79076989 6.97208815,9.10202988 C7.64222006,8.41328987 8.01124435,7.48598534 7.99780185,6.52456004 C8.02511616,5.56025134 7.66025573,4.62615369 6.98679409,3.93622788 C6.31333245,3.24630207 5.38897459,2.85966382 4.42545036,2.86482299 L2.55337229,2.86482299 Z M4.42545036,0.56645044 C7.91486168,0.56645044 10.5541363,3.20593155 10.5541363,6.52456004 C10.5541363,9.84318853 7.91486168,12.4974982 4.42545036,12.4974982 L0.296214883,12.4974982 C0.132619921,12.4974982 0,12.3647189 0,12.2009273 L0,0.874884187 C0,0.711092595 0.132619921,0.578313276 0.296214883,0.578313276 L4.42545036,0.56645044 Z" id="Shape"></path>
                            <path d="M19.5501823,10.451177 C21.1345704,10.4559568 22.5657263,9.50440682 23.1759218,8.04046947 C23.7861173,6.57653213 23.4550996,4.88870969 22.3373101,3.76448197 C21.2195205,2.64025424 19.5352451,2.301176 18.0703088,2.90544945 C16.6053725,3.5097229 15.6484743,4.93826217 15.6460701,6.52456004 C15.6460701,8.68623058 17.391129,10.4413628 19.5501823,10.451177 M19.5501823,0.296570911 C23.2232468,0.296570911 26.0313639,3.12289169 26.0313639,6.52456004 C26.0313639,9.92622838 23.2232468,12.7525492 19.5501823,12.7525492 C15.8771177,12.7525492 13.0926978,9.94105693 13.0926978,6.52456004 C13.0926978,3.10806314 15.9008149,0.296570911 19.5501823,0.296570911" id="Shape"></path>
                            <path d="M34.9533562,10.45116 C37.1141464,10.446247 38.8626032,8.68993943 38.8604261,6.52654764 C38.8582449,4.36315586 37.1062536,2.61038262 34.9454579,2.60983412 C32.7846622,2.60928587 31.0317836,4.36116964 31.028509,6.52456004 C31.028509,7.56647285 31.4421127,8.56566834 32.1782496,9.30213378 C32.9143865,10.0385992 33.9126945,10.4519458 34.9533562,10.45116 M34.9533562,0.296570911 C38.6145722,0.296570911 41.4226893,3.10806314 41.4226893,6.52456004 C41.4226893,9.94105693 38.6027236,12.7525492 34.9533562,12.7525492 C31.3039889,12.7525492 28.4721746,9.94105693 28.4721746,6.52456004 C28.4721746,3.10806314 31.2802917,0.296570911 34.9533562,0.296570911" id="Shape"></path>
                            <path d="M49.9862616,2.864875 L47.3469869,2.864875 L47.3469869,6.02038949 L49.9862616,6.02038949 C50.4059639,6.03974509 50.815463,5.88727075 51.1205435,5.59804697 C51.4256239,5.30882319 51.6000154,4.90775493 51.6035948,4.48711788 C51.6186391,4.05321647 51.4530779,3.63253736 51.1464471,3.32553792 C50.8398162,3.01853849 50.4196421,2.85277835 49.9862616,2.86784071 M44.7936146,0.874884187 C44.7936146,0.711092595 44.9262346,0.578313276 45.0898295,0.578313276 L50.0603153,0.578313276 C52.4300343,0.578313276 54.1451185,2.31621881 54.1451185,4.49898072 C54.1627101,5.97515202 53.3368316,7.33177354 52.0182956,7.99258605 L54.3109988,12.0496761 C54.3754039,12.1442039 54.3797475,12.2673955 54.3221604,12.366235 C54.2645732,12.4650745 54.1553298,12.5219273 54.0414433,12.5123267 L52.0301442,12.5123267 C51.9171321,12.5148116 51.8125596,12.4526831 51.7605887,12.3521784 L49.5508257,8.3366083 L47.3381005,8.3366083 L47.3381005,12.1920301 C47.3381005,12.3558217 47.2054806,12.4886011 47.0418856,12.4886011 L45.1046403,12.4886011 C44.9410453,12.4886011 44.8084254,12.3558217 44.8084254,12.1920301 L44.7936146,0.874884187 Z" id="Shape"></path>
                            <path d="M60.8010669,2.9211531 L60.8010669,10.2524564 L62.673145,10.2524564 C63.6329151,10.241511 64.5489793,9.84905091 65.2195794,9.16151325 C65.8901795,8.4739756 66.2603125,7.54775269 66.2484586,6.58683993 C66.2774311,5.62100101 65.9128965,4.68488525 65.238606,3.99356403 C64.5643156,3.30224281 63.6382404,2.91515138 62.673145,2.9211531 L60.8010669,2.9211531 Z M62.673145,0.619833203 C66.1625563,0.619833203 68.8018309,3.26228002 68.8018309,6.58683993 C68.8018309,9.91139984 66.1625563,12.5538467 62.673145,12.5538467 L58.5557581,12.5538467 C58.3921632,12.5538467 58.2595432,12.4210673 58.2595432,12.2572757 L58.2595432,0.93123266 C58.2595432,0.767441069 58.3921632,0.634661749 58.5557581,0.634661749 L62.673145,0.619833203 Z" id="Shape"></path>
                            <path d="M76.5893202,3.53512526 L75.1408294,7.4557927 L78.0348488,7.4557927 L76.5893202,3.53512526 Z M74.2906927,9.6711774 L73.3428051,12.2810014 C73.3015143,12.4083307 73.180142,12.4921783 73.0465902,12.4856353 L70.9908589,12.4856353 C70.8850055,12.4957023 70.7818834,12.4481931 70.7206609,12.3611526 C70.6594384,12.2741121 70.649509,12.1608954 70.694644,12.0645046 L75.1378673,0.750324404 C75.1823147,0.626521879 75.3029111,0.54683259 75.4340822,0.554587603 L77.7356718,0.554587603 C77.8668429,0.54683259 77.9874393,0.626521879 78.0318867,0.750324404 L82.4751099,12.0645046 C82.520245,12.1608954 82.5103156,12.2741121 82.4490931,12.3611526 C82.3878705,12.4481931 82.2847485,12.4957023 82.1788951,12.4856353 L80.1231638,12.4856353 C79.989612,12.4921783 79.8682397,12.4083307 79.8269489,12.2810014 L78.8790613,9.6711774 L74.2906927,9.6711774 Z" id="Shape"></path>
                            <path d="M84.8596398,3.79017624 C84.8596398,1.91584808 86.476973,0.296570911 89.0303453,0.296570911 C90.3996956,0.26375914 91.7282736,0.764568373 92.7359935,1.6934199 C92.7967801,1.7495654 92.8313548,1.82859725 92.8313548,1.91139952 C92.8313548,1.99420179 92.7967801,2.07323364 92.7359935,2.12937914 L91.5955662,3.26228002 C91.5399469,3.31842464 91.4642356,3.3500052 91.3852536,3.3500052 C91.3062716,3.3500052 91.2305603,3.31842464 91.1749411,3.26228002 C90.6334967,2.76959516 89.9307755,2.49217714 89.1991878,2.48229852 C88.1772464,2.48229852 87.4218985,3.07544034 87.4218985,3.76051915 C87.4218985,5.97590385 93.4587578,4.69768323 93.4587578,8.95940721 C93.4557957,11.1184434 91.8266138,12.7525492 88.944443,12.7525492 C87.3358097,12.7719409 85.7857934,12.1486276 84.6374786,11.020575 C84.576692,10.9644295 84.5421173,10.8853977 84.5421173,10.8025954 C84.5421173,10.7197932 84.576692,10.6407613 84.6374786,10.5846158 L85.739398,9.48137202 C85.7953215,9.42243424 85.8729579,9.38906398 85.9541538,9.38906398 C86.0353496,9.38906398 86.112986,9.42243424 86.1689095,9.48137202 C86.8696932,10.1549772 87.801204,10.5348199 88.7726384,10.5430959 C90.0493245,10.5430959 90.8905748,9.86098278 90.8905748,9.00685856 C90.8905748,6.79147386 84.8566776,8.06969448 84.8566776,3.80797049" id="Path"></path>
                            <path d="M104.40686,0.860055641 L104.40686,5.33827639 L99.2971532,5.33827639 L99.2971532,0.860055641 C99.2971532,0.69626405 99.1645332,0.56348473 99.0009383,0.56348473 L97.0636929,0.56348473 C96.900098,0.56348473 96.7674781,0.69626405 96.7674781,0.860055641 L96.7674781,12.1742359 C96.7674781,12.3380275 96.900098,12.4708068 97.0636929,12.4708068 L99.0009383,12.4708068 C99.1645332,12.4708068 99.2971532,12.3380275 99.2971532,12.1742359 L99.2971532,7.62483812 L104.403898,7.62483812 L104.403898,12.1742359 C104.403898,12.3380275 104.536518,12.4708068 104.700113,12.4708068 L106.637358,12.4708068 C106.800953,12.4708068 106.933573,12.3380275 106.933573,12.1742359 L106.933573,0.860055641 C106.933573,0.69626405 106.800953,0.56348473 106.637358,0.56348473 L104.700113,0.56348473 C104.537676,0.565111134 104.406852,0.697415276 104.40686,0.860055641 Z" id="Path"></path>
                        </g>
                    </g>
                </g>
            </g>
        </g>
    </g>
</svg>