<?xml version="1.0" encoding="utf-8"?>
<!-- Generator: Adobe Illustrator 27.3.1, SVG Export Plug-In . SVG Version: 6.00 Build 0)  -->
<svg width="122px" height="25px" version="1.1" id="Layer_1" xmlns="http://www.w3.org/2000/svg" xmlns:xlink="http://www.w3.org/1999/xlink" x="0px" y="0px"
	 viewBox="0 0 122 25" style="enable-background:new 0 0 122 25;" xml:space="preserve">
<style type="text/css">
	.st0{fill:#7C769F;}
</style>
<path class="st0" d="M47.3,13.5l-1.6-0.1c-1.1-0.1-1.5-0.5-1.5-1.1c0-0.8,0.6-1.3,1.9-1.3c1.2,0,1.8,0.5,1.9,1.4h3.8
	c-0.2-2.5-2-4.2-5.6-4.2c-3.7,0-5.8,1.9-5.8,4.4c0,2.3,1.3,3.6,4.5,3.9l1.6,0.1c1.2,0.1,1.7,0.5,1.7,1.3c0,0.8-0.6,1.4-2,1.4
	c-1.2,0-2-0.6-2.1-1.5h-4c0.4,2.7,2.2,4.5,6.1,4.5c3.7,0,5.8-1.9,5.8-4.5C52,15.1,50.6,13.8,47.3,13.5z"/>
<path class="st0" d="M34.2,8.1c-2.4,0-3.8,1.2-4.5,3.8h-0.2V8.4h-3.8v13.5h4V14c0-1.8,0.9-2.8,2.6-2.8c1.7,0,2.5,1,2.5,2.8v7.9h4
	v-8.6C38.8,10,37.1,8.1,34.2,8.1z"/>
<path class="st0" d="M21.9,3.1c-1.4,0-2.4,0.9-2.4,2.2s1,2.2,2.4,2.2s2.4-0.9,2.4-2.2C24.2,4,23.2,3.1,21.9,3.1z"/>
<path class="st0" d="M23.9,8.4h-4v13.5h4V8.4z"/>
<path class="st0" d="M58.3,5.5h-2.5c-0.1,2.2-1,3.1-3.1,3.3v2.7h1.6v5.9c0,3,1.7,4.6,5.1,4.6c0.6,0,1.3-0.1,1.9-0.2v-3.2
	c-0.3,0.1-0.6,0.1-1,0.1c-1.4,0-2-0.5-2-2v-5.1h3.5V8.4h-3.5L58.3,5.5z"/>
<path class="st0" d="M121.6,11.5V8.4h-3.5V5.5h-2.5c-0.1,1.5-0.5,2.4-1.5,2.9v9.1c0,3,1.7,4.6,5.1,4.6c0.6,0,1.3-0.1,1.9-0.2v-3.2
	c-0.3,0.1-0.6,0.1-1,0.1c-1.4,0-2-0.5-2-2v-5.1H121.6z"/>
<path class="st0" d="M108.5,12.1h-0.2V8.4h-3.7v13.5h4v-7.3c0-2,0.9-2.9,3-2.9c0.4,0,0.9,0,1.3,0.1V8.3c-0.4-0.1-0.7-0.2-1.1-0.2
	C110.1,8.1,109,9.1,108.5,12.1z"/>
<path class="st0" d="M83,18.7c-1.9,0-3.2-1.2-3.2-3.7c0-2.2,1.3-3.5,3.2-3.5c1.7,0,2.6,0.9,2.9,2.4h4c-0.4-3.5-2.9-5.8-6.9-5.8
	c-4.4,0-7.3,3-7.3,7c0,4.2,2.8,6.9,7.2,6.9c4,0,6.6-2.2,7-5.9h-4C85.7,17.7,84.7,18.7,83,18.7z"/>
<path class="st0" d="M68.7,8.1c-3.5,0-5.6,1.7-5.9,4.8h3.8c0.1-1.1,0.8-1.6,2-1.6c1.2,0,1.8,0.6,1.8,1.4c0,0.7-0.4,1-1.5,1.2
	l-1.8,0.3c-3.2,0.6-4.4,1.9-4.4,4c0,2.4,1.7,3.9,4,3.9c1.9,0,3.2-0.9,3.7-3.1h0.2v2.9h3.8v-8.8C74.4,10,72.6,8.1,68.7,8.1z
	 M68.3,19.4c-1.1,0-1.7-0.6-1.7-1.4c0-0.7,0.4-1.2,1.5-1.4l0.7-0.2c0.6-0.1,1.1-0.3,1.6-0.7v1.4C70.4,18.7,69.5,19.4,68.3,19.4z"/>
<path class="st0" d="M97.1,8.1c-3.5,0-5.6,1.7-5.9,4.8H95c0.1-1.1,0.8-1.6,2-1.6c1.2,0,1.8,0.6,1.8,1.4c0,0.7-0.4,1-1.5,1.2
	l-1.8,0.3c-3.2,0.6-4.4,1.9-4.4,4c0,2.4,1.7,3.9,4,3.9c1.9,0,3.2-0.9,3.7-3.1H99v2.9h3.8v-8.8C102.8,10,100.9,8.1,97.1,8.1z
	 M96.6,19.4c-1.1,0-1.7-0.6-1.7-1.4c0-0.7,0.4-1.2,1.5-1.4l0.7-0.2c0.6-0.1,1.1-0.3,1.6-0.7v1.4C98.8,18.7,97.9,19.4,96.6,19.4z"/>
<path class="st0" d="M13.2,6.3c-0.8,0-1.4,0.4-1.9,1.1L9.7,9.7V3.3H6v6.4L4.4,7.5C3.9,6.7,3.3,6.3,2.5,6.3c-1.2,0-2.1,0.9-2.1,2
	c0,1,0.5,1.6,1.4,2.2l6,3.9l6-3.9c1-0.6,1.4-1.2,1.4-2.2C15.3,7.2,14.4,6.3,13.2,6.3z"/>
<path class="st0" d="M7.8,15.4c3.6,0,6.5,2.7,6.5,6.5h-13C1.3,18.1,4.2,15.4,7.8,15.4z"/>
</svg>
