<?xml version="1.0" encoding="utf-8"?>
<!-- Generator: Adobe Illustrator 25.3.1, SVG Export Plug-In . SVG Version: 6.00 Build 0)  -->
<svg version="1.1" id="Layer_1" xmlns="http://www.w3.org/2000/svg" xmlns:xlink="http://www.w3.org/1999/xlink" x="0px" y="0px"
	 viewBox="0 0 108 23.8" style="enable-background:new 0 0 108 23.8;" xml:space="preserve">
<style type="text/css">
	.st0{fill:#7C769F;}
</style>
<g id="layer1">
	<path id="path33" class="st0" d="M5.3,1.1v0.5h2V12c0,3.1-0.9,4-2.8,4c-1.2,0-1.4-0.9-1.4-1.4c0-1.1-0.1-1.8-1.1-1.8
		c-1,0-1.2,1-1.2,1.4c0,1.4,0.6,2.5,3.5,2.5c3.4,0,5.2-1.1,5.2-4.9V1.6l2.1,0V1.1H5.3 M11.6,14.6c-0.2,0.2-0.4,0.5-0.4,0.9
		c0,0.3,0.1,0.6,0.4,0.9c0.2,0.2,0.5,0.4,0.9,0.4c0.3,0,0.6-0.1,0.9-0.4c0.2-0.2,0.4-0.5,0.4-0.9c0-0.3-0.1-0.6-0.4-0.9
		c-0.2-0.2-0.5-0.4-0.9-0.4C12.1,14.2,11.8,14.3,11.6,14.6 M25.4,14.6c-0.2,0.2-0.4,0.5-0.4,0.9c0,0.3,0.1,0.6,0.4,0.9
		c0.3,0.2,0.5,0.4,0.9,0.4c0.3,0,0.6-0.1,0.9-0.4c0.2-0.2,0.4-0.5,0.4-0.9c0-0.3-0.1-0.6-0.4-0.9c-0.2-0.2-0.5-0.4-0.9-0.4
		C26,14.2,25.7,14.3,25.4,14.6 M15.8,1.1v0.5h1.8v11.8c0,0.9-0.1,1.2-0.2,1.4c-0.1,0.3-0.4,0.5-0.7,0.7c-0.3,0.1-0.7,0.2-1.3,0.2
		v0.5h6.6v-0.5c-0.6,0-1-0.1-1.3-0.2c-0.4-0.2-0.6-0.4-0.8-0.7c-0.1-0.3-0.2-0.5-0.2-1v-4l1.6,0c4.7,0,6.1-1.9,6.1-4.4
		c0-2.6-0.8-4.4-5.6-4.4L15.8,1.1 M19.9,1.7l1.1,0c3.6,0,4.4,1.5,4.4,3.9c0,2.4-1.4,3.7-4.3,3.7h-1.2V1.7 M44.6,1.1
		C44.6,1.2,40,12.7,40,12.7l-0.1,0.1l-0.1-0.1c0,0-4.9-11.4-4.9-11.6h-4.3v0.5h1.9v11.7l0,1.1c0,0.3-0.1,0.5-0.3,0.7
		c-0.1,0.2-0.4,0.4-0.7,0.5c-0.2,0.1-0.5,0.1-0.9,0.1v0.5h4.3v-0.5c-0.4,0-0.5-0.1-0.7-0.1c-0.3-0.1-0.5-0.3-0.7-0.5
		c-0.1-0.2-0.2-0.5-0.3-0.7l0-1.1V3.2h0.3c0,0,5.5,12.9,5.6,13h0.5l5.2-12.9h0.1v10.5c0,0.4,0,0.8-0.1,1.1c-0.1,0.3-0.3,0.5-0.6,0.7
		c-0.2,0.1-0.6,0.2-1.1,0.2v0.5h6v-0.5c-0.5,0-0.8-0.1-1.1-0.2c-0.3-0.2-0.6-0.4-0.7-0.7c-0.1-0.3-0.1-0.6-0.1-1V1.6l1.6,0V1.1H44.6
		 M49.9,10.9c0,5.4,4.2,5.8,5.1,5.8c1.8,0,5.2-1.1,5.2-5.9c0-3.7-2.2-5.7-5.1-5.7C51.9,5.1,49.9,7.2,49.9,10.9 M52.3,11
		c0-3,0.2-5.2,2.8-5.2c2.8,0,2.8,2.3,2.8,5c0,3.9-0.7,5.2-2.8,5.2C52.7,16,52.3,14.8,52.3,11 M65.5,7.6l-0.1,0c0,0-0.3-1.7-0.4-2.2
		c-0.7,0-3.7,0-3.7,0V6h2c0,0,0,1.7,0,2.3v5.2c0,0.7-0.1,1.3-0.2,1.6c-0.2,0.4-0.7,0.6-1.4,0.6h-0.3v0.7h6.2v-0.7h-0.3
		c-0.8,0-1.2-0.2-1.4-0.5c-0.2-0.3-0.3-0.8-0.3-1.6V9.6c0-1.3,1-2.8,2.2-2.8c1.2,0,1.2,1.9,2.6,1.1c0.8-0.4,0.6-2.6-1.7-2.6
		C66.6,5.3,66,6.4,65.5,7.6 M84.8,6c-0.7,0.5-1,1-1,1.7c0,0.3,0.1,0.6,0.3,0.7c0.2,0.2,0.4,0.2,0.7,0.2c0.6,0,1-0.3,1.1-1.1
		C86,7,86.1,6.6,86.4,6.3c0.3-0.3,0.8-0.5,1.5-0.5c0.8,0,1.3,0.2,1.6,0.6c0.3,0.4,0.4,0.9,0.4,1.6v1.8c-2,0.2-6.7,0.6-6.4,4.1
		c0.1,1.4,1.3,2.6,2.9,2.6c1.8,0,2.9-1,3.6-1.8c0.1,0.8,0.8,1.7,2.1,1.7c1.4,0,2.3-0.7,2.4-2.5h-0.4c-0.1,0.8-0.6,1.2-1,1.2
		c-0.7,0-0.9-0.4-0.9-1l0-1.4V8.2c0-1-0.2-1.6-0.7-2.2c-0.6-0.6-1.7-0.9-3.3-0.9C86.7,5.1,85.5,5.4,84.8,6 M85.6,13.5
		c0-2,2.8-3,4.3-3V14l0,0.1l0,0c-1.1,1-1.9,1.3-2.5,1.3C85.9,15.4,85.6,14.2,85.6,13.5 M98.8,7.4l-0.2,0l-0.4-2l-3.4,0v0.6
		c0.6,0,1.7,0,1.7,0v7.5c0,0.6,0,1-0.1,1.3c-0.1,0.3-0.3,0.6-0.6,0.7c-0.2,0.1-0.5,0.1-0.9,0.2v0.7h5.3v-0.7c-0.5,0-0.9-0.2-1.1-0.5
		c-0.2-0.3-0.3-0.8-0.3-1.5v-2.9c0-1.2,0-2.4,0.4-3.1c0.4-0.8,1.2-1.2,2.2-1.2c0.8,0,1.2,0.3,1.5,0.8c0.2,0.4,0.4,1.7,0.4,2.5l0,3.6
		c0,0.6,0.1,1,0,1.3c-0.1,0.3-0.2,0.6-0.5,0.8c-0.2,0.1-0.5,0.2-0.9,0.2v0.7h5.1v-0.7c-0.7,0-1.1-0.2-1.3-0.5
		c-0.2-0.3-0.4-0.8-0.4-1.6l0-4.9c0-0.7-0.1-1.3-0.4-1.8c-0.3-0.5-0.6-0.9-1.1-1.1c-0.5-0.2-1-0.4-1.6-0.4
		C100.2,5.3,99.3,6.6,98.8,7.4 M81.6,4.7c-0.3,0.1-0.5,0.4-0.6,0.9c-0.1,0.4-0.3,0.7-0.5,0.8c-0.2,0.1-0.5,0-0.8-0.1
		c-0.6-0.5-1.6-1.1-3.5-1.1c-3,0-4.3,2.1-4.3,4.1c0,2.3,0.9,3.4,2.8,3.8c0.1,0,0.1,0.2,0,0.2c-1.7,0.3-3.1,0.8-3.1,2.4
		c0,0.9,0.5,1.5,1.2,1.7c0.8,0.3,1.8,0.5,3.2,0.5c1.2,0,2,0.1,2.6,0.1c0.6,0.1,1.1,0.2,1.4,0.5c0.4,0.3,0.5,0.7,0.5,1.2
		c0,0.7-0.4,1.3-1.2,1.7c-0.7,0.4-1.7,0.6-2.9,0.6c-1,0-1.9-0.1-2.7-0.6c-0.6-0.4-0.7-1.1-0.6-1.6c0.1-0.5-0.1-1-0.7-1.1
		c-0.3-0.1-0.7,0.1-0.9,0.4c-0.2,0.3-0.2,0.6-0.2,1c0,1.3,1,1.9,1.8,2.1c1.2,0.4,1.9,0.4,3,0.4c1.4,0,2.6-0.2,3.4-0.6
		c0.8-0.4,1.4-0.9,1.7-1.5c0.3-0.6,0.5-1.2,0.5-1.8c0-0.8-0.2-1.4-0.5-1.9c-1.1-1.5-2.6-1.3-6-1.5c-1.7,0-2-0.3-2-0.8
		c0-0.7,0.6-1,3-1.4c2.4-0.4,4.5-1.2,4.5-4.1c0-0.8-0.2-1.5-0.4-2c0.5,0.1,0.9,0.1,1.4,0c0.5-0.1,0.8-0.4,1-0.7
		c0.2-0.3,0.2-0.6,0.1-1c-0.2-0.5-0.4-0.8-0.8-0.8C81.9,4.6,81.8,4.7,81.6,4.7 M74.1,9.2c0-2,0.7-3.5,2.2-3.5c1.8,0,2.3,1.4,2.3,3.5
		c0,3-0.9,3.4-2.3,3.4C74.9,12.6,74.1,12.1,74.1,9.2"/>
</g>
</svg>
