<svg width="200" height="24" viewBox="0 0 200 24" fill="none" xmlns="http://www.w3.org/2000/svg">
<path d="M38.5836 6.11913C36.8404 2.84041 33.4279 0.796889 29.7181 0.810122H1.64344C1.25436 0.813408 0.905142 1.04985 0.757212 1.41016C0.609281 1.77047 0.691455 2.18446 0.965749 2.46076L7.08083 8.61889C7.62112 9.1627 8.35571 9.46832 9.12183 9.46802H28.9136C30.3232 9.45377 31.4774 10.5863 31.4916 11.9975C31.5058 13.4088 30.3747 14.5644 28.9651 14.5786H15.3201C14.9303 14.5803 14.5797 14.8162 14.4307 15.1769C14.2818 15.5375 14.3637 15.9525 14.6385 16.2293L20.7575 22.3914C21.2976 22.9356 22.0323 23.2412 22.7985 23.2405H28.9691C36.9983 23.2405 43.0698 14.6461 38.5836 6.11517" fill="#7C769F"/>
<path fill-rule="evenodd" clip-rule="evenodd" d="M69.0952 11.9202C69.0952 7.48014 65.564 3.94873 60.8955 3.94873L55.3709 3.9646C55.152 3.9646 54.9746 4.14225 54.9746 4.36139V19.5147C54.9746 19.7338 55.152 19.9115 55.3709 19.9115H60.8955C65.564 19.9115 69.0952 16.3602 69.0952 11.9202ZM58.3908 16.8324V7.02383H60.8955C62.1846 7.01686 63.4213 7.53415 64.3224 8.45721C65.2234 9.38028 65.7115 10.63 65.675 11.9202C65.693 13.2065 65.1993 14.4471 64.3027 15.3686C63.4061 16.2901 62.1803 16.8167 60.8955 16.8324H58.3908Z" fill="#7C769F"/>
<path fill-rule="evenodd" clip-rule="evenodd" d="M89.8026 11.9204C89.8026 7.36927 86.0455 3.58789 81.1313 3.58789C76.2487 3.58789 72.4917 7.34943 72.4917 11.9204C72.4917 16.4914 76.217 20.253 81.1313 20.253C86.0455 20.253 89.8026 16.4716 89.8026 11.9204ZM85.9822 13.9486C85.1658 15.9072 83.2511 17.1803 81.1313 17.1739C78.2426 17.1608 75.9079 14.8126 75.9079 11.9204C75.9111 9.79809 77.1914 7.88682 79.1513 7.07835C81.1113 6.26989 83.3647 6.72354 84.8602 8.22767C86.3557 9.73179 86.7986 11.99 85.9822 13.9486Z" fill="#7C769F"/>
<path fill-rule="evenodd" clip-rule="evenodd" d="M110.395 11.9204C110.395 7.34943 106.638 3.58789 101.739 3.58789C96.8249 3.58789 93.0679 7.34943 93.0679 11.9204C93.0679 16.4914 96.8566 20.253 101.739 20.253C106.622 20.253 110.395 16.4914 110.395 11.9204ZM106.966 11.9231C106.969 14.8175 104.63 17.1673 101.739 17.1739C100.347 17.1749 99.0112 16.6219 98.0263 15.6366C97.0414 14.6513 96.488 13.3144 96.488 11.9204C96.4924 9.02598 98.8376 6.68211 101.729 6.68284C104.62 6.68358 106.964 9.02864 106.966 11.9231Z" fill="#7C769F"/>
<path fill-rule="evenodd" clip-rule="evenodd" d="M115.301 3.96484C115.082 3.96484 114.905 4.14249 114.905 4.36163L114.925 19.503C114.925 19.7222 115.102 19.8998 115.321 19.8998H117.913C118.132 19.8998 118.309 19.7222 118.309 19.503V14.3448H121.27L124.226 19.7173C124.296 19.8518 124.435 19.9349 124.587 19.9316H127.278C127.43 19.9444 127.576 19.8683 127.653 19.7361C127.73 19.6039 127.724 19.439 127.638 19.3126L124.571 13.8845C126.335 13.0004 127.44 11.1854 127.416 9.21037C127.416 6.29002 125.122 3.96484 121.951 3.96484H115.301ZM118.321 7.02407H121.852V7.02804C122.432 7.00789 122.994 7.22966 123.404 7.6404C123.815 8.05114 124.036 8.61398 124.016 9.1945C124.011 9.75728 123.778 10.2939 123.37 10.6808C122.962 11.0678 122.414 11.2718 121.852 11.2459H118.321V7.02407Z" fill="#7C769F"/>
<path fill-rule="evenodd" clip-rule="evenodd" d="M147.026 12.0034C147.026 7.55539 143.494 4.02002 138.826 4.02002L133.317 4.03986C133.098 4.03986 132.921 4.21751 132.921 4.43665V19.5899C132.921 19.8091 133.098 19.9867 133.317 19.9867H138.826C143.494 19.9867 147.026 16.4514 147.026 12.0034ZM136.321 16.9077V7.09909H138.826C140.117 7.09096 141.356 7.60886 142.258 8.53379C143.16 9.45872 143.648 10.7112 143.609 12.0034C143.625 13.289 143.13 14.5282 142.233 15.4481C141.336 16.3679 140.11 16.893 138.826 16.9077H136.321Z" fill="#7C769F"/>
<path fill-rule="evenodd" clip-rule="evenodd" d="M153.101 19.6218L154.369 16.1301H160.508L161.776 19.6218C161.831 19.7921 161.994 19.9043 162.173 19.8956H164.923C165.065 19.909 165.203 19.8455 165.284 19.729C165.366 19.6126 165.38 19.4611 165.319 19.3321L159.375 4.1947C159.315 4.02907 159.154 3.92245 158.978 3.93282H155.899C155.723 3.92245 155.562 4.02907 155.503 4.1947L149.558 19.3321C149.498 19.4611 149.511 19.6126 149.593 19.729C149.675 19.8455 149.813 19.909 149.954 19.8956H152.705C152.883 19.9043 153.046 19.7921 153.101 19.6218ZM155.507 13.1661L157.445 7.92054L159.379 13.1661H155.507Z" fill="#7C769F"/>
<path d="M168.51 8.26163C168.51 5.75394 170.674 3.58748 174.09 3.58748C175.922 3.54358 177.699 4.21362 179.048 5.45635C179.129 5.53146 179.175 5.6372 179.175 5.74798C179.175 5.85877 179.129 5.9645 179.048 6.03962L177.522 7.55535C177.447 7.63047 177.346 7.67272 177.241 7.67272C177.135 7.67272 177.034 7.63047 176.959 7.55535C176.235 6.89618 175.295 6.52502 174.316 6.5118C172.948 6.5118 171.938 7.30537 171.938 8.22195C171.938 11.186 180.015 9.4758 180.015 15.1776C180.011 18.0662 177.831 20.2525 173.975 20.2525C171.823 20.2785 169.749 19.4445 168.213 17.9353C168.131 17.8602 168.085 17.7544 168.085 17.6437C168.085 17.5329 168.131 17.4271 168.213 17.352L169.687 15.876C169.762 15.7971 169.866 15.7525 169.974 15.7525C170.083 15.7525 170.187 15.7971 170.261 15.876C171.199 16.7772 172.445 17.2854 173.745 17.2965C175.453 17.2965 176.579 16.3839 176.579 15.2411C176.579 12.2771 168.506 13.9873 168.506 8.28544" fill="#7C769F"/>
<path d="M194.662 4.34161V10.3331H187.826V4.34161C187.826 4.12247 187.648 3.94482 187.43 3.94482H184.838C184.619 3.94482 184.441 4.12247 184.441 4.34161V19.479C184.441 19.6982 184.619 19.8758 184.838 19.8758H187.43C187.648 19.8758 187.826 19.6982 187.826 19.479V13.3923H194.658V19.479C194.658 19.6982 194.836 19.8758 195.055 19.8758H197.646C197.865 19.8758 198.043 19.6982 198.043 19.479V4.34161C198.043 4.12247 197.865 3.94482 197.646 3.94482H195.055C194.837 3.947 194.662 4.12401 194.662 4.34161Z" fill="#7C769F"/>
</svg>
