<svg width="134" height="35" viewBox="0 0 134 35" fill="none" xmlns="http://www.w3.org/2000/svg">
<path fill-rule="evenodd" clip-rule="evenodd" d="M5.60194 0.759766H27.9234C29.4094 0.759335 30.8348 1.35005 31.8857 2.40193C32.9365 3.45381 33.527 4.88064 33.527 6.36843V28.7151C33.527 31.8136 31.0181 34.3254 27.9234 34.3254H5.60194C2.5078 34.3245 0 31.813 0 28.7151V6.36843C0 3.27084 2.50806 0.759766 5.60194 0.759766ZM25.6673 28.2233C26.6438 28.2233 27.4355 27.4307 27.4355 26.4531L27.4306 8.6337C27.4306 7.65604 26.6389 6.8635 25.6624 6.8635H7.86612C7.39691 6.8635 6.94694 7.05023 6.61532 7.38256C6.28369 7.71489 6.09761 8.16557 6.09803 8.63534V26.4531C6.09803 27.4307 6.88963 28.2233 7.86612 28.2233H25.6673Z" fill="#7C769F"/>
<path d="M13.2061 22.0935C12.6487 22.0891 12.1992 21.6355 12.1992 21.0774V13.964C12.1979 13.6936 12.3043 13.4339 12.4948 13.2422C12.6853 13.0506 12.9442 12.9429 13.2142 12.9429H20.3289C20.5988 12.9433 20.8574 13.0512 21.0479 13.2427C21.2382 13.4343 21.3447 13.6937 21.3438 13.964V21.0757C21.3447 21.3459 21.2382 21.6054 21.0479 21.7969C20.8574 21.9886 20.5988 22.0964 20.3289 22.0969L13.2061 22.0935Z" fill="#7C769F"/>
<path d="M50.5865 16.0469C49.5488 15.7636 48.5663 15.4965 47.8035 15.1562C46.3916 14.5243 45.7345 13.6481 45.7345 12.4007C45.7345 10.0426 48.0116 8.98076 50.2792 8.98076C52.4342 8.98076 54.3162 9.87319 55.5801 11.492L55.6662 11.6027L57.488 10.1761L57.4003 10.0654C55.72 7.92547 53.2314 6.75293 50.3897 6.75293C48.4981 6.75293 46.764 7.26429 45.51 8.19418C44.0982 9.22829 43.3531 10.7282 43.3531 12.5179C43.3531 16.6789 47.2666 17.6933 50.4125 18.5093C53.5957 19.3496 55.546 19.988 55.546 22.4177C55.546 24.81 53.6136 26.3556 50.6239 26.3556C49.1454 26.3556 46.4079 25.9632 44.687 23.3314L44.6073 23.2076L42.6912 24.5967L42.766 24.7092C44.3926 27.1747 47.2 28.59 50.4776 28.59C54.9294 28.59 57.9223 26.0738 57.9223 22.3315C57.9223 18.0484 53.8527 16.9393 50.5865 16.0469Z" fill="#7C769F"/>
<path fill-rule="evenodd" clip-rule="evenodd" d="M72.4444 15.1818V12.9296H74.5865V34.322H72.4444V25.9643C71.2212 27.6433 69.3864 28.5618 67.2295 28.5618C63.1567 28.5618 60.3101 25.2966 60.3101 20.582C60.3101 15.8674 63.1631 12.5762 67.2295 12.5762C69.3718 12.5762 71.2066 13.4995 72.4444 15.1818ZM62.5678 20.5559C62.5678 24.9204 65.0646 26.4757 67.4019 26.4757L67.4068 26.4772C70.4664 26.4772 72.4444 24.1322 72.4444 20.5559C72.4444 16.9797 70.4632 14.6672 67.4019 14.6672C63.8381 14.6672 62.5678 17.7093 62.5678 20.5559Z" fill="#7C769F"/>
<path d="M88.7492 12.9297V21.3736C88.7492 24.3295 86.7273 26.4758 83.9426 26.4758C81.6296 26.4758 80.5041 25.1013 80.5041 22.2759V12.9297H78.3618V22.7139C78.3618 26.378 80.3511 28.5651 83.6823 28.5651C85.7578 28.5651 87.5406 27.6842 88.7507 26.0735V28.2167H90.893V12.9297H88.7492Z" fill="#7C769F"/>
<path fill-rule="evenodd" clip-rule="evenodd" d="M94.927 14.5353C96.5063 13.2927 98.6501 12.5811 100.805 12.5811C104.21 12.5811 106.241 14.2763 106.235 17.1197V28.2199H104.091V26.5245C103.009 27.881 101.445 28.5684 99.431 28.5684C96.1501 28.5684 94.1104 26.772 94.1104 23.8831C94.1104 20.126 97.6465 19.5365 99.1529 19.2856C99.3984 19.2451 99.6521 19.206 99.9057 19.1668H99.906L99.9151 19.1654C101.973 18.8482 104.098 18.521 104.098 16.7729C104.098 14.7942 101.532 14.6411 100.747 14.6411C99.3594 14.6411 97.3993 15.0532 96.0672 16.2093L95.9453 16.3152L94.8261 14.6151L94.927 14.5353ZM96.347 23.7625C96.347 26.2119 98.6501 26.4772 99.6408 26.4772H99.6423C101.796 26.4772 104.101 25.3276 104.096 22.0966V19.8849C103.051 20.5457 101.564 20.8039 100.237 21.0341L100.215 21.0381L99.5497 21.1569C97.4254 21.551 96.347 22.0591 96.347 23.7625Z" fill="#7C769F"/>
<path d="M118.646 13.2179C118.137 12.8548 117.335 12.6382 116.499 12.6382C114.781 12.6608 113.173 13.49 112.157 14.8774V12.9232H110.015V28.2086H112.157V20.0334C112.157 16.4083 114.192 14.7846 116.207 14.7846C116.797 14.7767 117.381 14.9008 117.917 15.1478L118.062 15.2243L118.74 13.2798L118.646 13.2179Z" fill="#7C769F"/>
<path fill-rule="evenodd" clip-rule="evenodd" d="M119.274 20.6145C119.274 15.8853 122.219 12.5811 126.431 12.5811C130.487 12.5811 133.322 15.514 133.314 19.7205C133.313 20.0862 133.293 20.4514 133.254 20.8149L133.241 20.9403H121.53C121.583 24.3065 123.607 26.4772 126.712 26.4772C128.491 26.4772 130.033 25.7527 131.053 24.4351L131.146 24.3147L132.698 25.6988L132.612 25.803C131.58 27.0619 129.7 28.5635 126.593 28.5635C122.218 28.5635 119.274 25.3699 119.274 20.6145ZM126.372 14.6395C123.755 14.6395 121.899 16.3641 121.609 19.0496H131.05C130.865 16.8901 129.547 14.6395 126.372 14.6395Z" fill="#7C769F"/>
</svg>
