<svg width="88" height="30" viewBox="0 0 88 30" fill="none" xmlns="http://www.w3.org/2000/svg">
<path fill-rule="evenodd" clip-rule="evenodd" d="M12.2455 25.397C8.24927 25.397 5.23167 22.397 5.23167 17.7533V0H0.949951V17.9998C0.949951 24.7806 5.63946 29.26 11.7562 29.26C14.733 29.26 17.3836 28.1093 19.3002 26.0956V28.7669H23.5411V0H19.2594V17.7533C19.2594 22.3149 16.201 25.397 12.2455 25.397ZM27.7413 0V28.7669H31.8191V26.1367C33.6949 28.0682 36.3455 29.26 39.2408 29.26C45.3575 29.26 50.1694 24.3696 50.1694 18.3286C50.1694 12.2465 45.3575 7.3561 39.2408 7.3561C36.4629 7.34972 33.8006 8.47629 31.8599 10.4794V0H27.7413ZM31.7783 18.3286C31.7783 22.356 34.9591 25.6025 38.9553 25.6025C42.87 25.6025 46.0915 22.356 46.0915 18.3286C46.0915 14.2601 42.87 11.0547 38.9553 11.0547C34.9998 11.0547 31.7783 14.2601 31.7783 18.3286ZM63.3 7.39719C57.224 7.39719 52.6161 12.3697 52.6161 18.2875C52.6161 24.534 57.4279 29.2189 63.667 29.2189C67.4594 29.2189 70.5585 27.534 72.6382 24.7395L69.6614 22.5203C68.1118 24.6162 66.0729 25.6025 63.667 25.6025C60.16 25.6025 57.3463 23.0546 56.7754 19.6437H73.6984V18.2875C73.6984 12.041 69.2944 7.39719 63.3 7.39719ZM63.2184 11.0136C60.16 11.0136 57.591 13.1506 56.857 16.356H69.5391C68.8458 13.1506 66.2768 11.0136 63.2184 11.0136ZM85.6873 11.5067H87.4V7.64376H85.9727C83.6891 7.64376 82.0172 8.71225 80.9978 10.3972V7.80815H76.9199V28.7669H81.0385V16.8492C81.0385 13.6026 82.9959 11.5067 85.6873 11.5067Z" fill="#7C769F"/>
</svg>
