<?xml version="1.0" encoding="utf-8"?>
<!-- Generator: Adobe Illustrator 27.3.1, SVG Export Plug-In . SVG Version: 6.00 Build 0)  -->
<svg version="1.1" id="Layer_1" xmlns="http://www.w3.org/2000/svg" xmlns:xlink="http://www.w3.org/1999/xlink" x="0px" y="0px"
	 viewBox="0 0 268 108.3" style="enable-background:new 0 0 268 108.3;" xml:space="preserve">
<style type="text/css">
	.st0{fill:#4A4AF4;}
</style>
<g>
	<path d="M85.9,59v3.2h-19v-4.5c0-5.8,3.3-7.4,6.1-7.4c1.9,0,3.9,0.5,5.6,1.4l3.9-8.8c-2.3-1.4-6-2.6-11-2.6
		c-8,0-17.1,4.5-17.1,18.6v3.2H47v9.7h7.3v34.2h12.5V71.9h19V106h12.5V71.9h11.3v-9.7H98.3v-4.4c0-5.8,3.3-7.4,6.1-7.4
		c1.9,0,3.9,0.5,5.6,1.4l3.8-8.8c0,0-3.9-2.6-11-2.6C94.9,40.4,85.9,44.9,85.9,59z M22.7,61c-7.2,0-15.5,3.4-20,7l4.1,8.6
		c3.6-3.3,9.4-6.1,14.7-6.1c5,0,7.8,1.7,7.8,5c0,2.3-1.9,3.4-5.3,3.9C11.2,81,1,84.7,1,94.6c0,7.9,5.6,12.7,14.4,12.7
		c5.9,0,11.4-3.1,14.5-8.1v6.8h11.7V77.5C41.6,65.7,33.4,61,22.7,61z M18.4,98.1c-3.3,0-4.9-1.6-4.9-4.3c0-4.9,5.6-6.6,15.6-7.7
		C29.1,92.7,24.6,98.1,18.4,98.1z M151.8,69.7v-7.4h-11.7V106h12.5V84.9c0-10,6.1-12.9,10.3-12.9c1.9,0,3.8,0.6,5.3,1.6l2.3-11.5
		c-1.8-0.7-3.7-1.1-5.6-1C158.4,61,154.4,63.9,151.8,69.7L151.8,69.7z M228.6,61c-5.7,0.1-11,3-14.1,7.7C212,63.8,207,61,200.9,61
		c-5.6-0.2-10.8,2.9-13.3,7.9v-6.6h-12.1V106H188V83.5c0-8.1,4.2-11.9,8.2-11.9c3.5,0,6.9,2.3,6.9,8.3v26.2h12.5V83.5
		c0-8.1,4.1-11.9,8.3-11.9c3.3,0,6.8,2.4,6.8,8.2v26.3h12.5V75.8C243.1,65.9,236.5,61,228.6,61z M117.1,62.3h12.5V106h-12.5V62.3z"
		/>
	<path class="st0" d="M189.9,1.2c-33.8,0-63.9,23.5-72.4,53.5h12.3c7.2-22.4,31.4-42.2,60.1-42.2c35.1,0,65.3,26.7,65.3,68.2
		c0.1,8.5-1.1,17-3.5,25.2h11.9l0.1-0.4c2-8.1,3-16.4,3-24.8C266.7,34.5,233,1.2,189.9,1.2L189.9,1.2z"/>
</g>
</svg>
