<?xml version="1.0" encoding="utf-8"?>
<!-- Generator: Adobe Illustrator 27.3.1, SVG Export Plug-In . SVG Version: 6.00 Build 0)  -->
<svg version="1.1" id="Layer_1" xmlns="http://www.w3.org/2000/svg" xmlns:xlink="http://www.w3.org/1999/xlink" x="0px" y="0px"
	 viewBox="0 0 1163 210" style="enable-background:new 0 0 1163 210;" xml:space="preserve">
<style type="text/css">
	.st0{fill:#FFDD00;}
</style>
<g>
	<path class="st0" d="M69.6,154.2c11.9,20.5,31.3,20.5,43.1,0l6.6-11.5L60,39.9H3.6C3.6,39.9,69.6,154.2,69.6,154.2z"/>
	<path class="st0" d="M194.8,110.3c-4.3,7.4-14.5,7.4-18.9,0l-40.7-70.4H78.8l66.1,114.3c11.9,20.5,31.3,20.5,43.1,0l44.2-76.6
		l-21.8-37.8h-56.4C154.1,39.8,194.8,110.3,194.8,110.3z"/>
</g>
<g>
	<path d="M292.6,154.7h19.2l0.2-0.6c11.9-44,16.7-62.8,18.7-74.5c1.9,11.6,6.6,30.7,17.9,74.5l0.2,0.6h19.6l27.4-100.6h-17.9
		l-0.2,0.6c-11.9,45.7-16.4,64.2-18.5,76c-2.4-12.7-7.6-33.5-18.7-76l-0.2-0.6h-18.7l-0.2,0.6c-11.6,45.3-16.4,64.7-18.5,77.2
		c-2.3-12.2-7.3-32.6-18.9-77.2l-0.2-0.6h-18.6l27,100.1C292.4,154.1,292.6,154.7,292.6,154.7z"/>
	<path d="M426.2,156.1c14.5,0,28.3-7.9,33.8-19.7l-13.3-6.8h-0.3l-0.3,0.5c-1.6,3.3-7.5,11.1-19.8,11.1c-11.2,0-19.7-7.1-21-17.5
		h57.1v-0.8c0.4-14.1-3.5-25.7-11.1-33.4c-6.6-6.8-15.7-10.3-26.3-10.3s-20,4-26.8,11.1c-6.8,7.1-10.5,16.9-10.5,27.5
		C387.7,140.3,403.6,156.1,426.2,156.1z M425.1,93.8c10.6,0,18.7,6.8,19.5,16.2h-39.3C406.5,100.5,414.7,93.8,425.1,93.8z"/>
	<path d="M498.6,156.1c18.7,0,30.3-8.7,30.3-22.7c0-16.6-15.1-20.5-27.2-23.7c-8.4-2.2-15.6-4.1-15.6-9.4c0-4.3,4.5-7.3,11-7.3
		c7.1,0,12,3.8,12.8,9.7l0.5,3h0.3l14.9-2.8c0-14-12.3-23.8-28.4-23.8s-28,9.1-28,22.1c0,15.8,14.6,19.7,26.4,22.8
		c8.5,2.3,15.9,4.3,15.9,9.8c0,4.8-4.7,7.8-12.3,7.8c-9.2,0-15.3-4.3-16.1-11.1l-0.2-1.1l-15.8,3
		C467.2,147.9,484.3,156.1,498.6,156.1z"/>
	<path d="M542.2,141c0,8.3,5.3,15.1,14,15.1c10.8,0,14-1.4,14-1.4v-14c0,0-3.2,0.5-7.2,0.5c-2.6,0-4.4-1.6-4.4-3.9V94.9h11.5
		L570,80.7h-11.3v-21l-16.5,4.1v16.9h-8.6v14.2h8.6L542.2,141L542.2,141z"/>
	<path d="M671.3,90.1v-9.4h-14.5v74h17.4l-0.2-45.3c0.2-4.5,1.8-8,4.5-10.4c3.6-3.1,9.4-4.1,16.9-3.1l0.9,0.1l0.2-15.4l-0.7-0.1
		C685.5,79.1,676.1,82.3,671.3,90.1L671.3,90.1z"/>
	<path d="M743.9,79.2c-10.5,0-20.3,4.2-25.2,12.1V80.7h-15.1v74h17.6V115c0-12.8,6.7-20.4,17.9-20.4c7.7,0,16.8,3.3,16.8,19.3v40.8
		h17.6v-43.2C773.5,87.7,758.2,79.2,743.9,79.2L743.9,79.2z"/>
	<path d="M867.8,113c0,17.1-8.1,26.5-22.8,26.5s-22.7-9.4-22.7-26.5v-59h-17.7v58.6c0,27.2,15.1,43.5,40.4,43.5
		c25.3,0,40.4-16.3,40.4-43.5V54.1h-17.6V113z"/>
	<path d="M936.1,79.2c-10.5,0-20.3,4.2-25.2,12.1V80.7h-15.1v74h17.6V115c0-12.8,6.7-20.4,17.9-20.4c7.7,0,16.8,3.3,16.8,19.3v40.8
		h17.6v-43.2C965.6,87.7,950.3,79.2,936.1,79.2L936.1,79.2z"/>
	<rect x="976.5" y="80.7" width="17.4" height="74"/>
	<path d="M985.3,53.4c-5.7,0-10.2,4.4-10.2,10s4.5,9.8,10.2,9.8c5.6,0,10-4.4,10-9.8C995.3,57.9,990.8,53.4,985.3,53.4z"/>
	<path d="M1041,79.2c-10.8,0-20.7,3.9-27.9,10.9c-7.1,7.1-11.1,16.8-11.1,27.5c0,22.3,16.4,38.5,39,38.5c22.6,0,39.1-16.2,39.1-38.5
		c0-10.7-4-20.5-11.1-27.5C1061.9,83,1051.9,79.2,1041,79.2L1041,79.2z M1041,140.1c-12.6,0-22-9.7-22-22.5c0-12.8,9.4-22.5,22-22.5
		c12.6,0,22.2,9.7,22.2,22.5C1063.3,130.4,1053.7,140.1,1041,140.1z"/>
	<path d="M1128.5,79.2c-10.5,0-20.3,4.2-25.2,12.1V80.7h-15.1v74h17.6V115c0-12.8,6.7-20.4,17.9-20.4c7.7,0,16.8,3.3,16.8,19.3v40.8
		h17.6v-43.2C1158.1,87.7,1142.8,79.2,1128.5,79.2L1128.5,79.2z"/>
	<path d="M612,79.2c-10.5,0-20,4-26.8,11.1c-6.8,7.1-10.5,16.9-10.5,27.5c0,22.6,15.8,38.3,38.4,38.3c14.5,0,28.3-7.9,33.8-19.7
		l-13.3-6.8h-0.3l-0.3,0.5c-1.6,3.3-7.5,11.1-19.8,11.1c-11.2,0-19.7-7.1-21-17.5h57.1v-0.8c0.4-14.1-3.5-25.7-11.1-33.4
		C631.7,82.7,622.6,79.2,612,79.2L612,79.2z M592.1,110c1.2-9.4,9.4-16.2,19.8-16.2s18.7,6.8,19.5,16.2H592.1z"/>
</g>
</svg>
