<svg width="247" height="156" viewBox="0 0 247 156" fill="none" xmlns="http://www.w3.org/2000/svg">
<g clip-path="url(#clip0_73_32327)">
<mask id="mask0_73_32327" style="mask-type:luminance" maskUnits="userSpaceOnUse" x="0" y="0" width="246" height="156">
<path d="M245.6 132.05L245.58 147.01C245.58 151.77 241.72 155.63 236.97 155.63H8.69001C3.93001 155.63 0.0700073 151.77 0.0700073 147.01V9.18C0.0700073 4.42 3.93001 0.559998 8.69001 0.559998H236.97C241.73 0.559998 245.58 4.42 245.58 9.18V93.06C245.58 93.35 245.51 93.63 245.35 93.86C241.86 99.25 239.84 105.66 239.84 112.56C239.84 119.47 241.89 125.91 245.4 131.31C245.53 131.53 245.61 131.78 245.61 132.06L245.6 132.05Z" fill="white"/>
</mask>
<g mask="url(#mask0_73_32327)">
<path d="M0.0699768 155.64L245.6 155.64L245.6 0.570007L0.0699768 0.570007L0.0699768 155.64Z" fill="url(#paint0_linear_73_32327)"/>
</g>
<mask id="mask1_73_32327" style="mask-type:luminance" maskUnits="userSpaceOnUse" x="0" y="0" width="246" height="156">
<path d="M8.86002 0.419983H237.14C241.89 0.419983 245.76 4.27998 245.76 9.03998V146.88C245.76 151.63 241.9 155.5 237.14 155.5H8.86002C4.11002 155.5 0.250019 151.64 0.250019 146.89V9.03998C0.240019 4.27998 4.10002 0.419983 8.86002 0.419983Z" fill="white"/>
</mask>
<g mask="url(#mask1_73_32327)">
<path d="M100.74 115.99C112.7 136.65 132.27 136.65 144.23 115.99L150.92 104.43L91.05 0.75H34.22L100.74 115.99Z" fill="#FFDD00"/>
<path d="M226.82 71.7C222.45 79.23 212.16 79.23 207.8 71.69L166.8 0.75H109.99L176.58 116.03C188.54 136.69 208.06 136.69 220.02 116.03L264.59 38.82L242.65 0.75H185.86L226.82 71.7Z" fill="#FFDD00"/>
</g>
<mask id="mask2_73_32327" style="mask-type:luminance" maskUnits="userSpaceOnUse" x="19" y="50" width="32" height="25">
<path d="M23.55 50.65H46.56C48.94 50.65 50.87 52.58 50.87 54.96V70.26C50.87 72.64 48.94 74.57 46.56 74.57H23.56C21.18 74.57 19.25 72.64 19.25 70.26V54.96C19.25 52.58 21.18 50.65 23.56 50.65H23.55Z" fill="white"/>
</mask>
<g mask="url(#mask2_73_32327)">
<path d="M50.87 50.65H19.24V74.57H50.87V50.65Z" fill="url(#paint1_linear_73_32327)"/>
<path d="M18.08 63.18C18.88 63.02 19.71 63.06 19.73 63.8C19.73 64.13 19.68 64.45 19.68 64.78C19.67 65.4 19.82 65.79 20.46 65.79C22.45 65.77 24.45 65.77 26.43 65.65C27.12 65.61 27.79 65.26 28.46 65.06C28.69 64.99 28.92 64.9 29.15 64.91C29.71 64.93 29.9 64.63 29.88 64.14C29.85 63.02 29.82 61.9 29.74 60.79C29.73 60.61 29.53 60.34 29.37 60.29C28.71 60.09 28.04 59.93 27.36 59.81C26.68 59.69 26 59.55 25.31 59.55C23.72 59.53 22.12 59.58 20.52 59.62C19.76 59.64 19.68 59.87 19.68 60.61C19.68 60.91 19.65 61.22 19.65 61.52C19.63 62.34 18.54 62.31 17.65 62.26C17.51 59.12 17.6 55.66 17.45 52.37C18.04 53.11 19.85 53.87 19.71 55C19.58 55.99 19.69 57 19.69 58.01C19.69 58.7 19.72 58.98 20.42 59C22.04 59.03 23.66 59.05 25.28 59C26.39 58.96 27.43 59.15 28.46 59.52C29.35 59.84 29.84 59.48 29.75 58.54C29.69 57.86 29.56 57.16 29.35 56.51C28.96 55.32 28.73 54.12 28.71 52.87C28.7 51.86 28.11 51.29 27.12 51.29C25.65 51.29 24.19 51.31 22.72 51.36C21.61 51.4 20.86 52.07 20.26 53.01C19.99 53.44 19.59 53.31 19.26 52.93C18.84 52.45 18.43 51.95 17.99 51.43C18.08 51.39 19.48 49.68 20.26 49.62C26.12 49.12 47.96 49.67 49.98 49.79C51.24 50.44 52.16 52.47 49.77 53.03C49.14 52.08 48.3 51.36 47.14 51.22C46.25 51.11 45.35 51.16 44.45 51.17C43.73 51.17 43 51.22 42.28 51.26C41.45 51.3 40.98 51.86 40.96 52.7C40.94 53.39 40.87 54.08 40.79 54.77C40.77 54.94 40.64 55.1 40.53 55.36C40.06 54.72 40.46 54.14 40.41 53.6C40.37 53.09 40.41 52.55 40.26 52.08C40.08 51.54 39.62 51.27 38.98 51.27C36.34 51.27 33.71 51.27 31.07 51.24C29.84 51.23 29.15 51.84 29.28 53.06C29.4 54.15 29.58 55.26 29.91 56.3C30.45 57.99 30.3 59.71 30.39 61.43C30.45 62.59 30.48 63.75 30.43 64.9C30.37 66.17 30.25 67.45 30.08 68.71C29.92 69.9 29.65 71.08 29.47 72.27C29.33 73.19 29.97 73.9 30.89 73.9C33.44 73.88 35.98 73.85 38.53 73.83C38.92 73.83 39.32 73.92 39.68 73.82C40.65 73.56 40.99 72.56 40.69 71.3C40.32 69.77 39.87 68.24 39.71 66.68C39.52 64.84 39.62 62.96 39.59 61.1C39.59 60.79 39.57 60.49 39.58 60.18C39.58 59.52 40.04 59 40.7 58.99C42.69 58.96 44.68 58.99 46.67 58.96C47.63 58.95 48.6 58.9 49.56 58.85C50.08 58.82 50.18 58.46 50.16 58.02C50.1 56.67 50.04 55.32 49.98 53.97C50.06 53.97 51.94 53.32 52.02 53.32C52.14 55.99 53.85 62.13 50.59 62.1C50.21 62.14 50.24 61.09 50.21 60.56C50.18 59.86 49.91 59.38 49.24 59.39C46.48 59.42 43.73 59.45 40.97 59.5C40.15 59.51 40.09 59.62 40.1 60.43C40.12 61.63 40.14 62.83 40.14 64.03C40.14 64.53 40.32 64.72 40.86 64.79C41.69 64.91 42.47 65.33 43.3 65.42C44.52 65.55 45.76 65.52 46.99 65.54C47.8 65.55 48.61 65.54 49.42 65.54C50 65.54 50.31 65.25 50.31 64.66C50.31 64.2 50.33 63.71 50.34 63.25C50.34 63.07 50.37 62.76 50.46 62.74C50.66 62.66 51.69 62.69 51.75 62.71C51.88 65.6 51.78 68.56 51.91 71.45C51.86 71.48 50.48 71.2 50.43 71.22C50.32 70.66 50.39 70.38 50.36 70.04C50.26 68.8 50.32 68.08 50.29 66.84C50.28 66.33 50.07 66.05 49.56 66.05C48.34 66.06 47.11 66.11 45.89 66.11C44.5 66.11 43.13 66.09 41.79 65.59C40.51 65.12 40.06 65.51 40.28 66.85C40.43 67.78 40.74 68.69 40.91 69.61C41.08 70.53 41.21 71.45 41.3 72.38C41.39 73.34 41.75 73.75 42.72 73.77C43.92 73.79 45.12 73.77 46.33 73.75C46.86 73.75 47.45 73.84 47.91 73.65C48.59 73.36 48.96 73.05 49.57 72.62C49.79 72.46 49.98 72.04 50.19 71.87C51.04 72.1 51.62 72.61 51.55 73.2C51.51 73.52 51.18 75.21 51.17 75.57C40.58 76.04 29.9 74.99 19.19 75.46C19.15 74.63 19.07 73.78 19.11 72.94C19.11 72.72 19.7 72.18 19.94 72.07C20.06 72.02 20.32 72.45 20.46 72.63C21.18 73.56 22.46 74.12 23.66 74.07C25.17 74.01 26.11 73.99 27.62 74C28.28 74 28.79 73.27 28.92 72.41C29.16 70.75 29.32 69.46 29.69 67.87C29.72 67.48 29.79 67.05 29.78 66.64C29.76 65.71 29.37 65.37 28.49 65.63C27.79 65.84 27.09 66.15 26.37 66.21C24.71 66.33 23.04 66.32 21.38 66.36C21.05 66.36 20.72 66.32 20.4 66.36C19.88 66.42 19.59 66.67 19.61 67.27C19.65 68.49 19.64 69.72 19.65 70.94C19.65 71.35 18.68 72.29 18.18 72.46C18.05 69.53 18.21 66.08 18.08 63.19" fill="#4E5257"/>
</g>
<path d="M32.68 127.44L25.47 144.65H20.76L17.21 130.92C16.99 130.07 16.81 129.76 16.15 129.41C15.08 128.83 13.31 128.28 11.76 127.95L11.87 127.45H19.45C20.42 127.45 21.28 128.09 21.5 129.2L23.37 139.16L28 127.45H32.68V127.44ZM51.12 139.03C51.14 134.49 44.84 134.24 44.88 132.21C44.89 131.59 45.48 130.94 46.77 130.77C47.41 130.69 49.17 130.62 51.16 131.54L51.94 127.89C50.87 127.5 49.49 127.13 47.78 127.13C43.38 127.13 40.28 129.47 40.26 132.82C40.23 135.3 42.47 136.68 44.16 137.5C45.89 138.34 46.48 138.88 46.47 139.64C46.46 140.8 45.09 141.3 43.81 141.32C41.57 141.36 40.27 140.72 39.24 140.23L38.43 144C39.47 144.48 41.39 144.89 43.38 144.91C48.05 144.91 51.11 142.6 51.13 139.02M62.75 144.64H66.87L63.28 127.43H59.48C58.63 127.43 57.91 127.93 57.58 128.69L50.9 144.64H55.57L56.5 142.07H62.21L62.75 144.64ZM57.78 138.54L60.12 132.08L61.47 138.54H57.78ZM39.05 127.43L35.37 144.64H30.92L34.6 127.43H39.05Z" fill="white"/>
</g>
<defs>
<linearGradient id="paint0_linear_73_32327" x1="34.52" y1="166.41" x2="130.95" y2="69.98" gradientUnits="userSpaceOnUse">
<stop stop-color="#221F20"/>
<stop offset="1" stop-color="#414042"/>
</linearGradient>
<linearGradient id="paint1_linear_73_32327" x1="19.1806" y1="60.259" x2="50.6724" y2="60.259" gradientUnits="userSpaceOnUse">
<stop stop-color="#8E98A0"/>
<stop offset="0.07" stop-color="#96A0A7"/>
<stop offset="0.19" stop-color="#AFB6BB"/>
<stop offset="0.34" stop-color="#D6DADD"/>
<stop offset="0.47" stop-color="white"/>
<stop offset="0.53" stop-color="white"/>
<stop offset="0.66" stop-color="#D6DADD"/>
<stop offset="0.81" stop-color="#AFB6BB"/>
<stop offset="0.93" stop-color="#96A0A7"/>
<stop offset="1" stop-color="#8E98A0"/>
</linearGradient>
<clipPath id="clip0_73_32327">
<rect width="246.28" height="155.63" fill="white"/>
</clipPath>
</defs>
</svg>
