<?xml version="1.0" encoding="UTF-8"?>
<svg width="94px" height="25px" viewBox="0 0 94 25" version="1.1" xmlns="http://www.w3.org/2000/svg" xmlns:xlink="http://www.w3.org/1999/xlink">
    <!-- Generator: Sketch 64 (93537) - https://sketch.com -->
    <title>square-22d4f700b4c53e104f17cab67cc34b9c27f99f2ea877069c6b2773d821a30004</title>
    <desc>Created with Sketch.</desc>
    <g id="Breakpoints" stroke="none" stroke-width="1" fill="none" fill-rule="evenodd">
        <g id="01-00-01-Home-1440" transform="translate(-295.000000, -732.000000)" fill="#7C769F">
            <g id="Hero">
                <g id="Logo" transform="translate(181.000000, 732.000000)">
                    <g id="square-22d4f700b4c53e104f17cab67cc34b9c27f99f2ea877069c6b2773d821a30004" transform="translate(114.114112, 0.840000)">
                        <path d="M3.9257543,-3.51444474e-13 L19.5683276,-3.51444474e-13 C20.6096494,-0.000302209561 21.6085751,0.413624875 22.3450077,1.15069466 C23.0814404,1.88775804 23.4952566,2.88756121 23.4952566,3.93008525 L23.4952566,19.5887397 C23.4952566,21.7599565 21.737045,23.5200009 19.5683276,23.5200009 L3.9257543,23.5200009 C1.75743208,23.5193595 0,21.7595289 0,19.5887397 L0,3.93008525 C0,1.75955265 1.75761363,-3.51444474e-13 3.9257543,-3.51444474e-13 Z M17.9872827,19.2441717 C18.6716012,19.2441717 19.2263819,18.6887789 19.2263819,18.0037054 L19.2229646,5.51739666 C19.2229646,4.83233386 18.6681839,4.27698388 17.9838654,4.27698388 L5.51245916,4.27698388 C5.1836488,4.27698388 4.86831551,4.40782992 4.63591632,4.64069931 C4.40351713,4.8735687 4.2731143,5.18936748 4.2734128,5.51854058 L4.2734128,18.0037054 C4.2734128,18.6887789 4.82815131,19.2441717 5.51245916,19.2441717 L17.9872827,19.2441717 Z" id="Shape"></path>
                        <path d="M9.25469264,14.948885 C8.86409285,14.9457846 8.54910377,14.6279439 8.54910377,14.2368704 L8.54910377,9.25236211 C8.54820424,9.0629192 8.62273387,8.88091715 8.75623365,8.74663933 C8.88972276,8.61236151 9.07116114,8.53687299 9.26039529,8.53687299 L14.2462773,8.53687299 C14.4354047,8.53717234 14.6166295,8.61275707 14.7501186,8.74697075 C14.8835009,8.88119512 14.958148,9.06301541 14.9575113,9.25236211 L14.9575113,14.2356944 C14.958148,14.4250304 14.8835009,14.6068828 14.7501186,14.7410537 C14.6166295,14.8753315 14.4354047,14.9509162 14.2462773,14.951237 L9.25469264,14.948885 Z" id="Path" fill-rule="nonzero"></path>
                        <path d="M35.450327,10.7118637 C34.7230784,10.5133121 34.034595,10.3261678 33.4999978,10.0876749 C32.5105766,9.64491093 32.0500926,9.03097476 32.0500926,8.15686462 C32.0500926,6.50449902 33.6458747,5.76047587 35.234929,5.76047587 C36.7451713,5.76047587 38.0640436,6.38581924 38.9497705,7.52011404 L39.0101076,7.59770867 L40.2867974,6.59807655 L40.2252856,6.52047124 C39.0478049,5.02101773 37.3037965,4.19939995 35.3123527,4.19939995 C33.9867525,4.19939995 32.7715745,4.55771647 31.892789,5.20930603 C30.9033678,5.93392518 30.3812652,6.98491642 30.3812652,8.23902425 C30.3812652,11.1546812 33.1237721,11.8655197 35.3283714,12.4372696 C37.5591344,13.0261249 38.9258493,13.4734325 38.9258493,15.1759599 C38.9258493,16.8522945 37.571629,17.9352836 35.4764909,17.9352836 C34.4404019,17.9352836 32.5220033,17.6603134 31.3160093,15.8162384 L31.2601575,15.7294283 L29.9173639,16.7028356 L29.9697984,16.7816276 C31.1096886,18.5092786 33.0771044,19.5009673 35.3739712,19.5009673 C38.4937717,19.5009673 40.5911525,17.7378225 40.5911525,15.1155562 C40.5911525,12.1142972 37.7391845,11.337175 35.450327,10.7118637 Z" id="Path" fill-rule="nonzero"></path>
                        <path d="M50.7680413,10.1059243 L50.7680413,8.52773227 L52.2692063,8.52773227 L52.2692063,23.5177558 L50.7680413,23.5177558 L50.7680413,17.6613825 C49.9108276,18.8379171 48.6250606,19.4815099 47.1135368,19.4815099 C44.2593262,19.4815099 42.2644651,17.1935483 42.2644651,13.8899504 C42.2644651,10.5863417 44.2638115,8.28010942 47.1135368,8.28010942 C48.6148086,8.28010942 49.9005757,8.92713395 50.7680413,10.1059243 Z M43.8466847,13.8716689 C43.8466847,16.9299105 45.5963531,18.0197418 47.2343178,18.0197418 L47.2377351,18.0208109 C49.3818904,18.0208109 50.7680413,16.3776181 50.7680413,13.8716689 C50.7680413,11.3657197 49.3796478,9.74531995 47.2343178,9.74531995 C44.7368968,9.74531995 43.8466847,11.876959 43.8466847,13.8716689 Z" id="Shape"></path>
                        <path d="M62.1941744,8.52773227 L62.1941744,14.4444878 C62.1941744,16.5157447 60.7772677,18.0197418 58.8257638,18.0197418 C57.2048857,18.0197418 56.4161253,17.0565978 56.4161253,15.0767482 L56.4161253,8.52773227 L54.9148535,8.52773227 L54.9148535,15.3836842 C54.9148535,17.9512131 56.3089069,19.483755 58.6433643,19.483755 C60.0978616,19.483755 61.3472128,18.8664618 62.1952423,17.7378225 L62.1952423,19.2395746 L63.6965142,19.2395746 L63.6965142,8.52773227 L62.1941744,8.52773227 Z" id="Path" fill-rule="nonzero"></path>
                        <path d="M66.523493,9.65289704 C67.6302778,8.78220799 69.1326176,8.28353051 70.6429667,8.28353051 C73.0287907,8.28353051 74.4524252,9.47145092 74.4479506,11.4638623 L74.4479506,19.2419266 L72.9456003,19.2419266 L72.9456003,18.0539527 C72.187489,19.0044815 71.0909561,19.486107 69.6798161,19.486107 C67.3805998,19.486107 65.9511985,18.2273593 65.9511985,16.2030356 C65.9511985,13.5703991 68.4292902,13.1573023 69.484922,12.9815438 C69.6569628,12.953106 69.8347702,12.9257372 70.0124709,12.8982616 L70.0126845,12.8982616 L70.019092,12.8972994 C71.4613082,12.6750354 72.9500855,12.4457154 72.9500855,11.2208579 C72.9500855,9.83433246 71.1524679,9.72707057 70.6019588,9.72707057 C69.6296242,9.72707057 68.2560747,10.0157786 67.3225053,10.8259357 L67.2370723,10.9001306 L66.4527971,9.70881049 L66.523493,9.65289704 Z M67.5185741,16.1185774 C67.5185741,17.834896 69.1326176,18.0208109 69.8268677,18.0208109 L69.8279356,18.0208109 C71.3372168,18.0208109 72.9524349,17.2152509 72.949023,14.951237 L72.949023,13.4014827 C72.2167498,13.864506 71.1745737,14.0453962 70.2449555,14.206722 L70.2292572,14.2095017 L69.7630065,14.2927838 C68.274336,14.56893 67.5185741,14.9249373 67.5185741,16.1185774 Z" id="Shape"></path>
                        <path d="M83.1452356,8.72970493 C82.7884459,8.4752399 82.2265102,8.32346106 81.6405464,8.32346106 C80.4365815,8.33930499 79.3100403,8.92034523 78.5981696,9.89253377 L78.5981696,8.52316725 L77.0970045,8.52316725 L77.0970045,19.2339084 L78.5981696,19.2339084 L78.5981696,13.5053984 C78.5981696,10.9652383 80.0242604,9.82747959 81.4364683,9.82747959 C81.8498573,9.82195239 82.2590815,9.90889087 82.6345596,10.0819553 L82.7360114,10.1355916 L83.2113394,8.77307795 L83.1452356,8.72970493 Z" id="Path" fill-rule="nonzero"></path>
                        <path d="M83.5852156,13.912722 C83.5852156,10.5989035 85.6494911,8.28353051 88.6006682,8.28353051 C91.4434521,8.28353051 93.4303039,10.3387189 93.424656,13.2862347 C93.4237896,13.5424958 93.4096932,13.7984362 93.3824614,14.0530936 L93.3732773,14.1409729 L85.1661538,14.1409729 C85.2037443,16.4997083 86.6218257,18.0208109 88.7978049,18.0208109 C90.0449135,18.0208109 91.1254276,17.5130996 91.8401817,16.5898327 L91.9051108,16.5054814 L92.9925664,17.4753607 L92.9322293,17.5483796 C92.2094659,18.4304866 90.8917683,19.4826859 88.7146145,19.4826859 C85.6483164,19.4826859 83.5852156,17.2448647 83.5852156,13.912722 Z M88.5595535,9.72592664 C86.7255201,9.72592664 85.424909,10.9343415 85.2220056,12.8161554 L91.8379391,12.8161554 C91.7079741,11.3029641 90.7846567,9.72592664 88.5595535,9.72592664 Z" id="Shape"></path>
                    </g>
                </g>
            </g>
        </g>
    </g>
</svg>