<?xml version="1.0" encoding="UTF-8"?>
<svg width="64px" height="23px" viewBox="0 0 64 23" version="1.1" xmlns="http://www.w3.org/2000/svg" xmlns:xlink="http://www.w3.org/1999/xlink">
    <!-- Generator: Sketch 64 (93537) - https://sketch.com -->
    <title>04e09deee72d5fce182103961d90edb8</title>
    <desc>Created with Sketch.</desc>
    <g id="Breakpoints" stroke="none" stroke-width="1" fill="none" fill-rule="evenodd">
        <g id="01-00-01-Home-1440" transform="translate(-181.000000, -733.000000)" fill="#7C769F" fill-rule="nonzero">
            <g id="Hero">
                <g id="Logo" transform="translate(181.000000, 732.000000)">
                    <g id="04e09deee72d5fce182103961d90edb8" transform="translate(-0.000000, 1.680000)">
                        <path d="M3.35344823,13.2456315 C3.35344823,16.6447754 5.56254469,18.8406825 8.48810487,18.8406825 C11.3838124,18.8406825 13.6227615,16.5846136 13.6227615,13.2456315 L13.6227615,0.250674328 L16.7572903,0.250674328 L16.7572903,21.3073179 L13.6526142,21.3073179 L13.6526142,19.3520582 C12.2495394,20.8260232 10.3091168,21.668289 8.12987302,21.668289 C3.65197478,21.668289 0.218919469,18.3894687 0.218919469,13.426117 L0.218919469,0.250674328 L3.35344823,0.250674328 L3.35344823,13.2456315 Z M19.8321137,21.3073179 L19.8321137,0.250674328 L22.8472319,0.250674328 L22.8472319,7.92130878 C24.2679478,6.45511113 26.2169337,5.6304949 28.2505624,5.6351589 C32.7284606,5.6351589 36.2510739,9.21478831 36.2510739,13.6667644 C36.2510739,18.0886595 32.7284606,21.668289 28.2505624,21.668289 C26.1310239,21.668289 24.1906013,20.7959423 22.8173792,19.3821391 L22.8173792,21.3073179 L19.8321137,21.3073179 Z M22.7875266,13.6667644 C22.7875266,16.6146945 25.1160336,18.9910871 28.0415938,18.9910871 C30.9074487,18.9910871 33.2658084,16.6146945 33.2658084,13.6667644 C33.2658084,10.6887534 30.9074487,8.34244165 28.0415938,8.34244165 C25.1458863,8.34244165 22.7875266,10.6887534 22.7875266,13.6667644 L22.7875266,13.6667644 Z M38.0422332,13.6366835 C38.0422332,9.30503107 41.4155832,5.66523982 45.8636288,5.66523982 C50.2519691,5.66523982 53.4760558,9.06438372 53.4760558,13.6366835 L53.4760558,14.6293538 L41.087204,14.6293538 C41.5051412,17.1260701 43.5649744,18.9910871 46.1323027,18.9910871 C47.8936093,18.9910871 49.3862421,18.2691451 50.520643,16.7350182 L52.6998868,18.3593878 C51.1774014,20.4048903 48.9085996,21.638208 46.1323027,21.638208 C41.5648465,21.638208 38.0422332,18.2089832 38.0422332,13.6366835 Z M45.8039235,8.31236073 C43.5649744,8.31236073 41.6842571,9.87656854 41.1469093,12.2228803 L50.431085,12.2228803 C49.9235899,9.87656854 48.0428726,8.31236073 45.8039235,8.31236073 Z M63.5065478,8.67333177 L62.2527363,8.67333177 C60.2824611,8.67333177 58.8495337,10.2074587 58.8495337,12.5838513 L58.8495337,21.3073179 L55.8344155,21.3073179 L55.8344155,5.96604902 L58.819681,5.96604902 L58.819681,7.86114694 C59.5659974,6.62782924 60.7899562,5.84572534 62.4617049,5.84572534 L63.5065478,5.84572534 L63.5065478,8.67333177 Z" id="Shape"></path>
                    </g>
                </g>
            </g>
        </g>
    </g>
</svg>